<?xml version="1.0" encoding="UTF-8" standalone="no"?>
<svg width="202px" height="302px" viewBox="0 0 202 302" version="1.1" xmlns="http://www.w3.org/2000/svg" xmlns:xlink="http://www.w3.org/1999/xlink" xmlns:sketch="http://www.bohemiancoding.com/sketch/ns">
    <title>bb-logo-lines</title>
    <description>Created with Sketch (http://www.bohemiancoding.com/sketch)</description>
    <defs></defs>
    <g id="Page-1" stroke="none" stroke-width="1" fill="none" fill-rule="evenodd" sketch:type="MSPage">
        <path d="M15.3318198,118.699283 C5.55588715,108.923351 5.55623297,93.0763036 15.3318198,83.3007168 L83.3007168,15.3318198 C93.0766494,5.55588715 108.923696,5.55623297 118.699283,15.3318198 L186.66818,83.3007168 C196.444113,93.0766494 196.443767,108.923696 186.66818,118.699283 L118.699283,186.66818 C108.923351,196.444113 93.0763036,196.443767 83.3007168,186.66818 L15.3318198,118.699283 Z" id="Path" stroke="#FFFFFF" stroke-width="16" sketch:type="MSShapeGroup"></path>
        <path d="M15.3318198,218.699283 C5.55588715,208.923351 5.55623297,193.076304 15.3318198,183.300717 L83.3007168,115.33182 C93.0766494,105.555887 108.923696,105.556233 118.699283,115.33182 L186.66818,183.300717 C196.444113,193.076649 196.443767,208.923696 186.66818,218.699283 L118.699283,286.66818 C108.923351,296.444113 93.0763036,296.443767 83.3007168,286.66818 L15.3318198,218.699283 Z" id="Path" stroke="#FFFFFF" stroke-width="16" sketch:type="MSShapeGroup"></path>
        <path d="M8,101 L8,201" id="Rectangle-53" stroke="#FFFFFF" stroke-width="16" sketch:type="MSShapeGroup"></path>
    </g>
</svg>