<?xml version="1.0" encoding="UTF-8" standalone="no"?>
<svg width="181px" height="271px" viewBox="0 0 181 271" version="1.1" xmlns="http://www.w3.org/2000/svg" xmlns:xlink="http://www.w3.org/1999/xlink" xmlns:sketch="http://www.bohemiancoding.com/sketch/ns">
    <title>bb-logo-light</title>
    <description>Created with Sketch (http://www.bohemiancoding.com/sketch)</description>
    <defs></defs>
    <g id="Page-1" stroke="none" stroke-width="1" fill="none" fill-rule="evenodd" sketch:type="MSPage">
        <path d="M0.513016974,180.974555 C0.756163656,188.193981 3.63331733,195.34126 9.14461159,200.852554 L69.6767081,261.38465 C81.207742,272.915684 99.9012648,272.916092 111.432707,261.38465 L171.964803,200.852554 C183.495837,189.32152 183.496245,170.627997 171.964803,159.096555 L148.31354,135.445293 L148.31354,135.445293 L171.964803,111.79403 C183.495837,100.262996 183.496245,81.5694731 171.964803,70.0380313 L111.432707,9.50593475 C99.9016728,-2.02509913 81.2081499,-2.02550707 69.6767081,9.50593475 L9.14461159,70.0380313 C3.6334346,75.5492083 0.756192916,82.6965092 0.513020163,89.9160305 L0.496183206,89.9160305 L0.496183206,90.9160305 C0.496183739,90.5826459 0.501796063,90.2492613 0.513020163,89.9160305 L0.513016974,180.974555 Z M0.496183206,179.974863 C0.496183205,179.974689 0.496183205,179.974516 0.496183206,179.974342 L0.496183206,179.974866 L0.496183206,179.974863 Z M32.7958744,135.445293 L14.9643766,117.613795 L14.9643766,153.27679 L32.7958744,135.445293 Z M101.202149,162.095569 C95.32106,167.976658 85.7882905,167.976593 79.9072658,162.095569 L53.2569897,135.445293 L79.9072658,108.795017 C85.7883548,102.913928 95.3211243,102.913992 101.202149,108.795017 L127.852425,135.445293 L101.202149,162.095569 Z M161.734246,101.563472 C167.61527,95.6824474 167.615335,86.149678 161.734246,80.2685889 L101.202149,19.7364924 C95.3211243,13.8554677 85.7883548,13.8554034 79.9072658,19.7364924 L19.3751692,80.2685889 C13.4941445,86.1496136 13.4940802,95.6823831 19.3751692,101.563472 L43.0264321,125.214735 L69.6767081,98.5644589 C81.2081499,87.0330171 99.9016728,87.033425 111.432707,98.5644589 L138.082983,125.214735 L161.734246,101.563472 Z M161.734246,169.327113 C167.615335,175.208202 167.61527,184.740972 161.734246,190.621996 L101.202149,251.154093 C95.32106,257.035182 85.7882905,257.035118 79.9072658,251.154093 L19.3751692,190.621996 C13.4940802,184.740907 13.4941445,175.208138 19.3751692,169.327113 L43.0264321,145.67585 L69.6767081,172.326126 C81.207742,183.85716 99.9012648,183.857568 111.432707,172.326126 L138.082983,145.67585 L161.734246,169.327113 Z" id="Rectangle-30" fill="#FAFAFA" sketch:type="MSShapeGroup"></path>
    </g>
</svg>