<?xml version="1.0" encoding="UTF-8" standalone="no"?>
<svg width="1049px" height="98px" viewBox="0 0 1049 98" version="1.1" xmlns="http://www.w3.org/2000/svg" xmlns:xlink="http://www.w3.org/1999/xlink" xmlns:sketch="http://www.bohemiancoding.com/sketch/ns">
    <title>bb-wordmark-light</title>
    <description>Created with Sketch (http://www.bohemiancoding.com/sketch)</description>
    <defs></defs>
    <g id="Page-1" stroke="none" stroke-width="1" fill="none" fill-rule="evenodd" sketch:type="MSPage">
        <path d="M0,90.5767909 C0,93.5402336 2.42463494,95.9648686 5.25337571,95.9648686 L41.8923037,95.9648686 C62.5017007,95.9648686 76.1065968,86.4010308 76.1065968,70.2367978 L76.1065968,69.9673939 C76.1065968,57.0360076 67.0815667,50.5703144 55.9013056,47.2027658 C63.3099124,43.9699193 70.8532211,37.638928 70.8532211,25.3810514 L70.8532211,25.1116475 C70.8532211,19.0500601 68.69799,14.0660883 64.7916337,10.0250301 C59.4035561,4.77165435 50.9173338,1.67350971 40.1411785,1.67350971 L5.25337571,1.67350971 C2.42463494,1.67350971 0,4.09814465 0,7.06158736 L0,90.5767909 Z M10.5067514,43.7005154 L10.5067514,11.2373475 L39.1982649,11.2373475 C52.668459,11.2373475 60.0770658,17.2989349 60.0770658,26.5933688 L60.0770658,26.8627727 C60.0770658,37.9083319 51.1867377,43.7005154 38.3900533,43.7005154 L10.5067514,43.7005154 Z M10.5067514,86.4010308 L10.5067514,53.1296513 L40.2758804,53.1296513 C56.7095173,53.1296513 65.3304415,59.0565367 65.3304415,69.2938842 L65.3304415,69.5632881 C65.3304415,80.0700395 56.4401134,86.4010308 42.1617076,86.4010308 L10.5067514,86.4010308 Z M100.891754,91.2503006 C100.891754,94.2137433 103.316389,96.6383783 106.14513,96.6383783 C109.108572,96.6383783 111.533207,94.2137433 111.533207,91.2503006 L111.533207,6.38807765 C111.533207,3.42463494 109.108572,1 106.14513,1 C103.316389,1 100.891754,3.42463494 100.891754,6.38807765 L100.891754,91.2503006 Z M166.761003,91.2503006 C166.761003,94.2137433 169.185638,96.6383783 172.149081,96.6383783 C175.112524,96.6383783 177.537159,94.2137433 177.537159,91.2503006 L177.537159,11.5067514 L204.881653,11.5067514 C207.575691,11.5067514 209.865624,9.35152036 209.865624,6.65748153 C209.865624,3.96344271 207.575691,1.67350971 204.881653,1.67350971 L139.416509,1.67350971 C136.72247,1.67350971 134.432537,3.96344271 134.432537,6.65748153 C134.432537,9.35152036 136.72247,11.5067514 139.416509,11.5067514 L166.761003,11.5067514 L166.761003,91.2503006 Z M270,90.5025769 C270,93.4660196 272.424635,95.8906545 275.253376,95.8906545 L311.892304,95.8906545 C332.501701,95.8906545 346.106597,86.3268167 346.106597,70.1625837 L346.106597,69.8931799 C346.106597,56.9617935 337.081567,50.4961003 325.901306,47.1285518 C333.309912,43.8957052 340.853221,37.564714 340.853221,25.3068373 L340.853221,25.0374334 C340.853221,18.9758461 338.69799,13.9918742 334.791634,9.95081601 C329.403556,4.6974403 320.917334,1.59929565 310.141178,1.59929565 L275.253376,1.59929565 C272.424635,1.59929565 270,4.0239306 270,6.9873733 L270,90.5025769 Z M280.506751,43.6263013 L280.506751,11.1631335 L309.198265,11.1631335 C322.668459,11.1631335 330.077066,17.2247208 330.077066,26.5191548 L330.077066,26.7885587 C330.077066,37.8341178 321.186738,43.6263013 308.390053,43.6263013 L280.506751,43.6263013 Z M280.506751,86.3268167 L280.506751,53.0554372 L310.27588,53.0554372 C326.709517,53.0554372 335.330442,58.9823226 335.330442,69.2196702 L335.330442,69.489074 C335.330442,79.9958255 326.440113,86.3268167 312.161708,86.3268167 L280.506751,86.3268167 Z M363.483147,91.7148943 C363.483147,94.4089332 365.638378,96.5641642 368.332417,96.5641642 C370.757052,96.5641642 372.508177,95.2171448 373.451091,92.9272118 L383.284333,70.9707954 L435.009878,70.9707954 L444.84312,92.6578079 C445.786033,94.813039 447.537159,96.5641642 450.096495,96.5641642 C452.925236,96.5641642 455.215169,94.2742312 455.215169,91.4454905 C455.215169,90.6372788 454.945765,89.6943652 454.54166,88.7514516 L416.286308,5.23624807 C415.073991,2.27280536 412.91876,0.521680124 409.685913,0.521680124 L409.147105,0.521680124 C405.779557,0.521680124 403.759028,2.27280536 402.412008,5.23624807 L364.156657,88.8861536 C363.617849,89.9637691 363.483147,90.9066827 363.483147,91.7148943 Z M387.460093,61.2722556 L409.147105,13.0489607 L430.834118,61.2722556 L387.460093,61.2722556 Z M508.961244,97.2376739 C527.684814,97.2376739 541.155008,86.7309225 541.155008,70.5666896 L541.155008,70.2972857 C541.155008,55.884178 531.456468,48.2061673 510.442965,43.6263013 C489.698866,39.1811373 484.849596,34.1971654 484.849596,25.3068373 L484.849596,25.0374334 C484.849596,16.5512111 492.662309,9.81611407 504.920186,9.81611407 C513.675812,9.81611407 521.353822,12.240749 529.301237,18.0329325 C530.24415,18.7064422 531.187064,18.9758461 532.399382,18.9758461 C535.228122,18.9758461 537.518055,16.6859131 537.518055,13.8571723 C537.518055,11.8366432 536.305738,10.3549218 535.228122,9.54671019 C526.607198,3.35042089 517.582168,0.252276241 505.189589,0.252276241 C487.274231,0.252276241 474.208143,11.1631335 474.208143,25.980347 L474.208143,26.2497509 C474.208143,41.7404741 484.176087,48.7449751 505.863099,53.459543 C525.664284,57.6353032 530.378852,62.619275 530.378852,71.3749012 L530.378852,71.6443051 C530.378852,80.938739 522.027332,87.6738361 509.36535,87.6738361 C497.376877,87.6738361 488.486549,84.0368837 479.596221,76.493575 C478.922711,75.8200653 477.710393,75.2812575 476.363374,75.2812575 C473.534633,75.2812575 471.2447,77.5711905 471.2447,80.5346332 C471.2447,82.2857585 472.052912,83.7674798 473.265229,84.5756915 C483.771981,92.9272118 495.221646,97.2376739 508.961244,97.2376739 Z M570.789435,95.8906545 L630.058289,95.8906545 C632.752328,95.8906545 634.907559,93.7354235 634.907559,91.0413846 C634.907559,88.3473458 632.752328,86.1921148 630.058289,86.1921148 L576.177512,86.1921148 L576.177512,53.1901392 L623.323192,53.1901392 C626.017231,53.1901392 628.172462,51.0349081 628.172462,48.3408693 C628.172462,45.7815324 626.017231,43.4915994 623.323192,43.4915994 L576.177512,43.4915994 L576.177512,11.2978354 L629.384779,11.2978354 C632.078818,11.2978354 634.234049,9.14260436 634.234049,6.44856554 C634.234049,3.75452671 632.078818,1.59929565 629.384779,1.59929565 L570.789435,1.59929565 C567.960694,1.59929565 565.536059,4.0239306 565.536059,6.9873733 L565.536059,90.5025769 C565.536059,93.4660196 567.960694,95.8906545 570.789435,95.8906545 Z M658.480399,91.3107885 C658.480399,94.2742312 660.770332,96.5641642 663.599072,96.5641642 C666.562515,96.5641642 668.852448,94.2742312 668.852448,91.3107885 L668.852448,20.9963752 L698.890981,65.1786119 C700.103298,66.9297372 701.58502,67.8726507 703.470847,67.8726507 C705.356674,67.8726507 706.703694,66.9297372 707.916011,65.1786119 L738.089246,20.8616733 L738.089246,91.1760866 C738.089246,94.0048273 740.513881,96.5641642 743.477323,96.5641642 C746.306064,96.5641642 748.730699,94.1395293 748.730699,91.1760866 L748.730699,6.44856554 C748.730699,3.61982477 746.306064,1.19518983 743.477323,1.19518983 L742.265006,1.19518983 C740.109775,1.19518983 738.35865,2.27280536 737.281034,4.0239306 L703.605549,54.6718605 L669.930064,4.0239306 C668.852448,2.4075073 667.236025,1.19518983 664.946092,1.19518983 L663.733774,1.19518983 C660.905033,1.19518983 658.480399,3.61982477 658.480399,6.44856554 L658.480399,91.3107885 Z M783.349098,95.8906545 L842.617952,95.8906545 C845.311991,95.8906545 847.467222,93.7354235 847.467222,91.0413846 C847.467222,88.3473458 845.311991,86.1921148 842.617952,86.1921148 L788.737176,86.1921148 L788.737176,53.1901392 L835.882855,53.1901392 C838.576894,53.1901392 840.732125,51.0349081 840.732125,48.3408693 C840.732125,45.7815324 838.576894,43.4915994 835.882855,43.4915994 L788.737176,43.4915994 L788.737176,11.2978354 L841.944443,11.2978354 C844.638481,11.2978354 846.793712,9.14260436 846.793712,6.44856554 C846.793712,3.75452671 844.638481,1.59929565 841.944443,1.59929565 L783.349098,1.59929565 C780.520357,1.59929565 778.095722,4.0239306 778.095722,6.9873733 L778.095722,90.5025769 C778.095722,93.4660196 780.520357,95.8906545 783.349098,95.8906545 Z M871.040062,91.3107885 C871.040062,94.1395293 873.329995,96.5641642 876.158736,96.5641642 C879.122178,96.5641642 881.412111,94.1395293 881.412111,91.3107885 L881.412111,18.3023364 L939.872754,93.0619138 C941.489177,94.9477409 943.1056,96.2947604 945.395533,96.2947604 L945.934341,96.2947604 C948.763082,96.2947604 950.783611,94.1395293 950.783611,91.3107885 L950.783611,6.17916166 C950.783611,3.35042089 948.493678,0.925785947 945.664937,0.925785947 C942.701495,0.925785947 940.411562,3.35042089 940.411562,6.17916166 L940.411562,77.3017866 L883.163237,4.29333448 C881.681515,2.4075073 880.199794,1.19518983 877.775159,1.19518983 L876.293438,1.19518983 C873.464697,1.19518983 871.040062,3.61982477 871.040062,6.44856554 L871.040062,91.3107885 Z M1005.06849,91.1760866 C1005.06849,94.1395293 1007.49313,96.5641642 1010.45657,96.5641642 C1013.42001,96.5641642 1015.84465,94.1395293 1015.84465,91.1760866 L1015.84465,11.4325374 L1043.18914,11.4325374 C1045.88318,11.4325374 1048.17311,9.2773063 1048.17311,6.58326748 C1048.17311,3.88922865 1045.88318,1.59929565 1043.18914,1.59929565 L977.723999,1.59929565 C975.02996,1.59929565 972.740027,3.88922865 972.740027,6.58326748 C972.740027,9.2773063 975.02996,11.4325374 977.723999,11.4325374 L1005.06849,11.4325374 L1005.06849,91.1760866 Z" id="BIT" fill="#FAFAFA" sketch:type="MSShapeGroup"></path>
    </g>
</svg>