<?xml version="1.0" encoding="UTF-8" standalone="no"?>
<svg width="2906px" height="2859px" viewBox="0 0 2906 2859" version="1.1" xmlns="http://www.w3.org/2000/svg" xmlns:xlink="http://www.w3.org/1999/xlink" xmlns:sketch="http://www.bohemiancoding.com/sketch/ns">
    <title>Slice 2</title>
    <description>Created with Sketch (http://www.bohemiancoding.com/sketch)</description>
    <defs></defs>
    <g id="Page-1" stroke="none" stroke-width="1" fill="none" fill-rule="evenodd" sketch:type="MSPage">
        <g id="Group" sketch:type="MSLayerGroup" transform="translate(0.000000, 1.000000)" stroke="#DD5545">
            <g id="App-Icons" transform="translate(294.000000, 68.000000)" stroke-width="10" sketch:type="MSShapeGroup">
                <rect id="Rectangle-56" x="1512" y="1017" width="60" height="60" rx="20"></rect>
                <rect id="Rectangle-56" x="1159" y="0" width="60" height="60" rx="20"></rect>
                <rect id="Rectangle-56" x="1159" y="100" width="60" height="60" rx="20"></rect>
                <rect id="Rectangle-56" x="2153" y="2268" width="60" height="60" rx="20"></rect>
                <rect id="Rectangle-56" x="2253" y="2268" width="60" height="60" rx="20"></rect>
                <rect id="Rectangle-56" x="2153" y="2368" width="60" height="60" rx="20"></rect>
                <rect id="Rectangle-56" x="2253" y="2368" width="60" height="60" rx="20"></rect>
                <rect id="Rectangle-56" x="2353" y="2268" width="60" height="60" rx="20"></rect>
                <rect id="Rectangle-56" x="2453" y="2268" width="60" height="60" rx="20"></rect>
                <rect id="Rectangle-56" x="1059" y="100" width="60" height="60" rx="20"></rect>
                <rect id="Rectangle-56" x="100" y="378" width="60" height="60" rx="20"></rect>
                <rect id="Rectangle-56" x="100" y="478" width="60" height="60" rx="20"></rect>
                <rect id="Rectangle-56" x="0" y="378" width="60" height="60" rx="20"></rect>
                <rect id="Rectangle-56" x="0" y="478" width="60" height="60" rx="20"></rect>
                <rect id="Rectangle-56" x="167" y="1125" width="60" height="60" rx="20"></rect>
                <rect id="Rectangle-56" x="167" y="1017" width="60" height="60" rx="20"></rect>
                <rect id="Rectangle-56" x="451" y="2716" width="60" height="60" rx="20"></rect>
            </g>
            <g id="Devices" stroke-width="10" sketch:type="MSShapeGroup">
                <path d="M568,1819 C568,1819 571.588599,1819 576.006814,1819 L1763.99319,1819" id="Rectangle-56" stroke-linecap="round" stroke-linejoin="round"></path>
                <path d="M993.180905,1953 L961.954746,2139.42017 C959.218315,2155.75666 970.434184,2169 986.998576,2169 L1345.00142,2169 C1361.56918,2169 1372.78004,2155.74683 1370.04525,2139.42017 L1338.8191,1953 L993.180905,1953 Z" id="Rectangle-56"></path>
                <rect id="Rectangle-56" x="563" y="1085" width="1205" height="878" rx="30"></rect>
                <rect id="Rectangle-56" transform="translate(255.000000, 1803.500000) rotate(-90.000000) translate(-255.000000, -1803.500000) " x="129" y="1575" width="252" height="457" rx="30"></rect>
                <rect id="Rectangle-56" transform="translate(255.000000, 1465.500000) rotate(-90.000000) translate(-255.000000, -1465.500000) " x="129" y="1237" width="252" height="457" rx="30"></rect>
                <rect id="Rectangle-56" transform="translate(2675.000000, 2150.500000) rotate(-90.000000) translate(-2675.000000, -2150.500000) " x="2549" y="1922" width="252" height="457" rx="30"></rect>
                <rect id="Rectangle-56" transform="translate(725.000000, 857.500000) rotate(-90.000000) translate(-725.000000, -857.500000) " x="599" y="629" width="252" height="457" rx="30"></rect>
                <rect id="Rectangle-56" x="2601" y="1457" width="252" height="457" rx="30"></rect>
                <rect id="Rectangle-56" x="1585" y="529" width="252" height="457" rx="30"></rect>
                <rect id="Rectangle-56" x="1589" y="-0.5" width="252" height="457" rx="30"></rect>
                <rect id="Rectangle-56" x="0" y="656.5" width="418" height="597" rx="30"></rect>
                <rect id="Rectangle-56" transform="translate(2207.000000, 344.500000) rotate(-90.000000) translate(-2207.000000, -344.500000) " x="1998" y="46" width="418" height="597" rx="30"></rect>
                <rect id="Rectangle-56" x="899" y="2260.5" width="418" height="597" rx="30"></rect>
                <rect id="Rectangle-56" x="508" y="33" width="418" height="597" rx="30"></rect>
                <rect id="Rectangle-56" x="1908" y="623" width="927" height="637" rx="30"></rect>
                <rect id="Rectangle-56" transform="translate(2371.500000, 1290.000000) rotate(-180.000000) translate(-2371.500000, -1290.000000) " x="1837" y="1250" width="1069" height="80" rx="30"></rect>
                <rect id="Rectangle-56" x="1462" y="2032" width="927" height="637" rx="30"></rect>
                <rect id="Rectangle-56" transform="translate(1925.500000, 2699.000000) rotate(-180.000000) translate(-1925.500000, -2699.000000) " x="1391" y="2659" width="1069" height="80" rx="30"></rect>
                <rect id="Rectangle-56" x="316" y="2032" width="511" height="694" rx="30"></rect>
                <rect id="Rectangle-56" x="1002" y="282" width="511" height="694" rx="30"></rect>
                <rect id="Rectangle-56" transform="translate(2184.500000, 1658.000000) rotate(-90.000000) translate(-2184.500000, -1658.000000) " x="1929" y="1311" width="511" height="694" rx="30"></rect>
            </g>
            <g id="Screens" transform="translate(0.000000, 55.000000)" stroke-width="10" sketch:type="MSShapeGroup" stroke-linecap="round" stroke-linejoin="round">
                <rect id="Rectangle-56" x="633" y="1101" width="1066" height="601" rx="8"></rect>
                <rect id="Rectangle-56" transform="translate(246.500000, 1748.500000) rotate(-90.000000) translate(-246.500000, -1748.500000) " x="120.5" y="1584.5" width="252" height="328" rx="8"></rect>
                <rect id="Rectangle-56" transform="translate(246.500000, 1410.500000) rotate(-90.000000) translate(-246.500000, -1410.500000) " x="120.5" y="1246.5" width="252" height="328" rx="8"></rect>
                <rect id="Rectangle-56" transform="translate(2666.500000, 2095.500000) rotate(-90.000000) translate(-2666.500000, -2095.500000) " x="2540.5" y="1931.5" width="252" height="328" rx="8"></rect>
                <rect id="Rectangle-56" transform="translate(716.500000, 802.500000) rotate(-90.000000) translate(-716.500000, -802.500000) " x="590.5" y="638.5" width="252" height="328" rx="8"></rect>
                <rect id="Rectangle-56" x="2601" y="1458" width="252" height="328" rx="8"></rect>
                <rect id="Rectangle-56" x="1585" y="530" width="252" height="328" rx="8"></rect>
                <rect id="Rectangle-56" x="1589" y="0.5" width="252" height="328" rx="8"></rect>
                <rect id="Rectangle-56" x="0" y="664.5" width="418" height="460" rx="8"></rect>
                <rect id="Rectangle-56" transform="translate(2201.500000, 289.500000) rotate(-90.000000) translate(-2201.500000, -289.500000) " x="1992.5" y="59.5" width="418" height="460" rx="8"></rect>
                <rect id="Rectangle-56" x="899" y="2268.5" width="418" height="460" rx="8"></rect>
                <rect id="Rectangle-56" x="508" y="41" width="418" height="460" rx="8"></rect>
                <rect id="Rectangle-56" x="1967" y="629" width="809" height="514" rx="8"></rect>
                <rect id="Rectangle-56" x="1521" y="2038" width="809" height="514" rx="8"></rect>
                <rect id="Rectangle-56" x="316" y="2044" width="511" height="553" rx="8"></rect>
                <rect id="Rectangle-56" x="1002" y="294" width="511" height="553" rx="8"></rect>
                <rect id="Rectangle-56" transform="translate(2181.000000, 1603.000000) rotate(-90.000000) translate(-2181.000000, -1603.000000) " x="1925.5" y="1326.5" width="511" height="553" rx="8"></rect>
            </g>
            <g id="Home-Buttons" transform="translate(189.000000, 325.000000)" stroke-width="8" sketch:type="MSShapeGroup">
                <circle id="Oval-38" transform="translate(253.500000, 1478.500000) rotate(-90.000000) translate(-253.500000, -1478.500000) " cx="253.5" cy="1478.5" r="20"></circle>
                <circle id="Oval-38" transform="translate(253.500000, 1140.500000) rotate(-90.000000) translate(-253.500000, -1140.500000) " cx="253.5" cy="1140.5" r="20"></circle>
                <circle id="Oval-38" transform="translate(2673.500000, 1825.500000) rotate(-90.000000) translate(-2673.500000, -1825.500000) " cx="2673.5" cy="1825.5" r="20"></circle>
                <circle id="Oval-38" transform="translate(723.500000, 532.500000) rotate(-90.000000) translate(-723.500000, -532.500000) " cx="723.5" cy="532.5" r="20"></circle>
                <circle id="Oval-38" cx="2538" cy="1548" r="20"></circle>
                <circle id="Oval-38" cx="1522" cy="620" r="20"></circle>
                <circle id="Oval-38" cx="1526" cy="90.5" r="20"></circle>
                <circle id="Oval-38" cx="20" cy="887.5" r="20"></circle>
                <circle id="Oval-38" transform="translate(2275.500000, 19.500000) rotate(-90.000000) translate(-2275.500000, -19.500000) " cx="2275.5" cy="19.5" r="20"></circle>
                <circle id="Oval-38" cx="919" cy="2491.5" r="20"></circle>
                <circle id="Oval-38" cx="528" cy="264" r="20"></circle>
                <circle id="Oval-38" cx="383" cy="2360" r="20"></circle>
                <circle id="Oval-38" cx="1069" cy="610" r="20"></circle>
                <circle id="Oval-38" transform="translate(2301.500000, 1332.500000) rotate(-90.000000) translate(-2301.500000, -1332.500000) " cx="2301.5" cy="1332.5" r="20"></circle>
            </g>
        </g>
    </g>
</svg>