<?xml version="1.0" encoding="UTF-8" standalone="no"?>
<svg width="3356px" height="3474px" viewBox="0 0 3356 3474" version="1.1" xmlns="http://www.w3.org/2000/svg" xmlns:xlink="http://www.w3.org/1999/xlink" xmlns:sketch="http://www.bohemiancoding.com/sketch/ns">
    <title>devices-45-s</title>
    <description>Created with Sketch (http://www.bohemiancoding.com/sketch)</description>
    <defs></defs>
    <g id="Page-1" stroke="none" stroke-width="1" fill="none" fill-rule="evenodd" sketch:type="MSPage">
        <g id="devices-svg-45@2x" sketch:type="MSLayerGroup" transform="translate(1722.500000, 1621.000000) rotate(45.000000) translate(-1722.500000, -1621.000000) translate(269.000000, 173.000000)" fill="#75EA97">
            <path d="M1001.64518,2001 L991.505863,2001 L961.954746,2177.42017 C959.218315,2193.75666 970.434184,2207 986.998576,2207 L1345.00142,2207 C1361.56918,2207 1372.78004,2193.74683 1370.04525,2177.42017 L1340.49414,2001 L1330.35482,2001 L1360.18266,2179.07219 C1361.89662,2189.30453 1355.38302,2197 1345.00142,2197 L986.998576,2197 C976.614875,2197 970.10264,2189.30897 971.817343,2179.07219 L1001.64518,2001 L1001.64518,2001 Z M563,1153.00045 L563,1970.99955 C563,1987.56834 576.429477,2001 592.993219,2001 L1738.00678,2001 C1754.57158,2001 1768,1987.56006 1768,1970.99955 L1768,1153.00045 C1768,1136.43166 1754.57052,1123 1738.00678,1123 L592.993219,1123 C576.428421,1123 563,1136.43994 563,1153.00045 Z M1738.00678,1133 C1749.04755,1133 1758,1141.95438 1758,1153.00045 L1758,1970.99955 C1758,1982.04104 1749.0449,1991 1738.00678,1991 L592.993219,1991 C581.952445,1991 573,1982.04562 573,1970.99955 L573,1153.00045 C573,1141.95896 581.955095,1133 592.993219,1133 L1738.00678,1133 Z M573,1852 L573,1862 L1758,1862 L1758,1852 L573,1852 Z" id="Rectangle-407" sketch:type="MSShapeGroup"></path>
            <path d="M82.5,1725.5 L56.5071137,1725.5 C45.4602285,1725.5 36.5,1734.4574 36.5,1745.49076 L36.5,1937.50924 C36.5,1948.55059 45.4532562,1957.5 56.5071137,1957.5 L82.5,1957.5 L82.5,1725.5 L82.5,1725.5 Z M410.5,1725.5 L453.492886,1725.5 C464.546744,1725.5 473.5,1734.44941 473.5,1745.49076 L473.5,1937.50924 C473.5,1948.5426 464.539772,1957.5 453.492886,1957.5 L410.5,1957.5 L410.5,1725.5 L410.5,1725.5 Z M56.5071137,1967.5 L453.492886,1967.5 C470.065358,1967.5 483.5,1954.06271 483.5,1937.50924 L483.5,1745.49076 C483.5,1728.92732 470.070354,1715.5 453.492886,1715.5 L56.5071137,1715.5 C39.9346424,1715.5 26.5,1728.93729 26.5,1745.49076 L26.5,1937.50924 C26.5,1954.07268 39.9296458,1967.5 56.5071137,1967.5 Z M92.5,1723.49321 C92.5,1724.60877 91.6079295,1725.5 90.5061555,1725.5 L402.493845,1725.5 C401.402143,1725.5 400.5,1724.59833 400.5,1723.49321 L400.5,1959.50679 C400.5,1958.39123 401.392071,1957.5 402.493845,1957.5 L90.5061555,1957.5 C91.5978575,1957.5 92.5,1958.40167 92.5,1959.50679 L92.5,1723.49321 Z" id="Rectangle-56" sketch:type="MSShapeGroup"></path>
            <path d="M82.5,1387.5 L56.5071137,1387.5 C45.4602285,1387.5 36.5,1396.4574 36.5,1407.49076 L36.5,1599.50924 C36.5,1610.55059 45.4532562,1619.5 56.5071137,1619.5 L82.5,1619.5 L82.5,1387.5 L82.5,1387.5 Z M410.5,1387.5 L453.492886,1387.5 C464.546744,1387.5 473.5,1396.44941 473.5,1407.49076 L473.5,1599.50924 C473.5,1610.5426 464.539772,1619.5 453.492886,1619.5 L410.5,1619.5 L410.5,1387.5 L410.5,1387.5 Z M56.5071137,1629.5 L453.492886,1629.5 C470.065358,1629.5 483.5,1616.06271 483.5,1599.50924 L483.5,1407.49076 C483.5,1390.92732 470.070354,1377.5 453.492886,1377.5 L56.5071137,1377.5 C39.9346424,1377.5 26.5,1390.93729 26.5,1407.49076 L26.5,1599.50924 C26.5,1616.07268 39.9296458,1629.5 56.5071137,1629.5 Z M92.5,1385.49321 C92.5,1386.60877 91.6079295,1387.5 90.5061555,1387.5 L402.493845,1387.5 C401.402143,1387.5 400.5,1386.59833 400.5,1385.49321 L400.5,1621.50679 C400.5,1620.39123 401.392071,1619.5 402.493845,1619.5 L90.5061555,1619.5 C91.5978575,1619.5 92.5,1620.40167 92.5,1621.50679 L92.5,1385.49321 Z" id="Rectangle-56" sketch:type="MSShapeGroup"></path>
            <path d="M2502.5,2079.5 L2476.50711,2079.5 C2465.46023,2079.5 2456.5,2088.4574 2456.5,2099.49076 L2456.5,2291.50924 C2456.5,2302.55059 2465.45326,2311.5 2476.50711,2311.5 L2502.5,2311.5 L2502.5,2079.5 L2502.5,2079.5 Z M2830.5,2079.5 L2873.49289,2079.5 C2884.54674,2079.5 2893.5,2088.44941 2893.5,2099.49076 L2893.5,2291.50924 C2893.5,2302.5426 2884.53977,2311.5 2873.49289,2311.5 L2830.5,2311.5 L2830.5,2079.5 L2830.5,2079.5 Z M2476.50711,2321.5 L2873.49289,2321.5 C2890.06536,2321.5 2903.5,2308.06271 2903.5,2291.50924 L2903.5,2099.49076 C2903.5,2082.92732 2890.07035,2069.5 2873.49289,2069.5 L2476.50711,2069.5 C2459.93464,2069.5 2446.5,2082.93729 2446.5,2099.49076 L2446.5,2291.50924 C2446.5,2308.07268 2459.92965,2321.5 2476.50711,2321.5 Z M2512.5,2077.49321 C2512.5,2078.60877 2511.60793,2079.5 2510.50616,2079.5 L2822.49384,2079.5 C2821.40214,2079.5 2820.5,2078.59833 2820.5,2077.49321 L2820.5,2313.50679 C2820.5,2312.39123 2821.39207,2311.5 2822.49384,2311.5 L2510.50616,2311.5 C2511.59786,2311.5 2512.5,2312.40167 2512.5,2313.50679 L2512.5,2077.49321 Z" id="Rectangle-56" sketch:type="MSShapeGroup"></path>
            <path d="M537.5,780.5 L511.507114,780.5 C500.460228,780.5 491.5,789.457401 491.5,800.490757 L491.5,992.509243 C491.5,1003.55059 500.453256,1012.5 511.507114,1012.5 L537.5,1012.5 L537.5,780.5 L537.5,780.5 Z M865.5,780.5 L908.492886,780.5 C919.546744,780.5 928.5,789.449405 928.5,800.490757 L928.5,992.509243 C928.5,1003.5426 919.539772,1012.5 908.492886,1012.5 L865.5,1012.5 L865.5,780.5 L865.5,780.5 Z M511.507114,1022.5 L908.492886,1022.5 C925.065358,1022.5 938.5,1009.06271 938.5,992.509243 L938.5,800.490757 C938.5,783.927319 925.070354,770.5 908.492886,770.5 L511.507114,770.5 C494.934642,770.5 481.5,783.937291 481.5,800.490757 L481.5,992.509243 C481.5,1009.07268 494.929646,1022.5 511.507114,1022.5 Z M547.5,778.493214 C547.5,779.608768 546.607929,780.5 545.506155,780.5 L857.493845,780.5 C856.402143,780.5 855.5,779.59833 855.5,778.493214 L855.5,1014.50679 C855.5,1013.39123 856.392071,1012.5 857.493845,1012.5 L545.506155,1012.5 C546.597857,1012.5 547.5,1013.40167 547.5,1014.50679 L547.5,778.493214 Z" id="Rectangle-56" sketch:type="MSShapeGroup"></path>
            <path d="M2843,1550 L2843,1524.00711 C2843,1512.96023 2834.0426,1504 2823.00924,1504 L2630.99076,1504 C2619.94941,1504 2611,1512.95326 2611,1524.00711 L2611,1550 L2843,1550 Z M2843,1878 L2843,1920.99289 C2843,1932.04674 2834.05059,1941 2823.00924,1941 L2630.99076,1941 C2619.9574,1941 2611,1932.03977 2611,1920.99289 L2611,1878 L2843,1878 L2843,1878 Z M2601,1524.00711 L2601,1920.99289 C2601,1937.56536 2614.43729,1951 2630.99076,1951 L2823.00924,1951 C2839.57268,1951 2853,1937.57035 2853,1920.99289 L2853,1524.00711 C2853,1507.43464 2839.56271,1494 2823.00924,1494 L2630.99076,1494 C2614.42732,1494 2601,1507.42965 2601,1524.00711 Z M2845.00679,1560 C2843.89123,1560 2843,1559.10793 2843,1558.00616 L2843,1869.99384 C2843,1868.90214 2843.90167,1868 2845.00679,1868 L2608.99321,1868 C2610.10877,1868 2611,1868.89207 2611,1869.99384 L2611,1558.00616 C2611,1559.09786 2610.09833,1560 2608.99321,1560 L2845.00679,1560 Z" id="Rectangle-56" sketch:type="MSShapeGroup"></path>
            <path d="M1827,622 L1827,596.007114 C1827,584.960228 1818.0426,576 1807.00924,576 L1614.99076,576 C1603.94941,576 1595,584.953256 1595,596.007114 L1595,622 L1827,622 Z M1827,950 L1827,992.992886 C1827,1004.04674 1818.05059,1013 1807.00924,1013 L1614.99076,1013 C1603.9574,1013 1595,1004.03977 1595,992.992886 L1595,950 L1827,950 L1827,950 Z M1585,596.007114 L1585,992.992886 C1585,1009.56536 1598.43729,1023 1614.99076,1023 L1807.00924,1023 C1823.57268,1023 1837,1009.57035 1837,992.992886 L1837,596.007114 C1837,579.434642 1823.56271,566 1807.00924,566 L1614.99076,566 C1598.42732,566 1585,579.429646 1585,596.007114 Z M1829.00679,632 C1827.89123,632 1827,631.107929 1827,630.006155 L1827,941.993845 C1827,940.902143 1827.90167,940 1829.00679,940 L1592.99321,940 C1594.10877,940 1595,940.892071 1595,941.993845 L1595,630.006155 C1595,631.097857 1594.09833,632 1592.99321,632 L1829.00679,632 Z" id="Rectangle-56" sketch:type="MSShapeGroup"></path>
            <path d="M1827,93.5 L1827,67.5071137 C1827,56.4602285 1818.0426,47.5 1807.00924,47.5 L1614.99076,47.5 C1603.94941,47.5 1595,56.4532562 1595,67.5071137 L1595,93.5 L1827,93.5 Z M1827,421.5 L1827,464.492886 C1827,475.546744 1818.05059,484.5 1807.00924,484.5 L1614.99076,484.5 C1603.9574,484.5 1595,475.539772 1595,464.492886 L1595,421.5 L1827,421.5 L1827,421.5 Z M1585,67.5071137 L1585,464.492886 C1585,481.065358 1598.43729,494.5 1614.99076,494.5 L1807.00924,494.5 C1823.57268,494.5 1837,481.070354 1837,464.492886 L1837,67.5071137 C1837,50.9346424 1823.56271,37.5 1807.00924,37.5 L1614.99076,37.5 C1598.42732,37.5 1585,50.9296458 1585,67.5071137 Z M1829.00679,103.5 C1827.89123,103.5 1827,102.607929 1827,101.506155 L1827,413.493845 C1827,412.402143 1827.90167,411.5 1829.00679,411.5 L1592.99321,411.5 C1594.10877,411.5 1595,412.392071 1595,413.493845 L1595,101.506155 C1595,102.597857 1594.09833,103.5 1592.99321,103.5 L1829.00679,103.5 Z" id="Rectangle-56" sketch:type="MSShapeGroup"></path>
            <path d="M408,757.5 L408,724.501632 C408,713.456143 399.044075,704.5 388.001424,704.5 L29.9985761,704.5 C18.9531923,704.5 10,713.453739 10,724.501632 L10,757.5 L408,757.5 Z M408,1217.5 L408,1261.49837 C408,1272.54626 399.046808,1281.5 388.001424,1281.5 L29.9985761,1281.5 C18.9559245,1281.5 10,1272.54386 10,1261.49837 L10,1217.5 L408,1217.5 Z M0,724.501632 L0,1261.49837 C0,1278.06781 13.4341843,1291.5 29.9985761,1291.5 L388.001424,1291.5 C404.56918,1291.5 418,1278.06958 418,1261.49837 L418,724.501632 C418,707.932188 404.565816,694.5 388.001424,694.5 L29.9985761,694.5 C13.43082,694.5 0,707.930416 0,724.501632 Z M410.000077,767.5 C408.892915,767.5 408,766.606162 408,765.508444 L408,1209.49156 C408,1208.39388 408.892901,1207.5 410.000077,1207.5 L7.99992267,1207.5 C9.10708503,1207.5 10,1208.39384 10,1209.49156 L10,765.508444 C10,766.606122 9.10709884,767.5 7.99992267,767.5 L410.000077,767.5 Z" id="Rectangle-56" sketch:type="MSShapeGroup"></path>
            <path d="M1972.5,183.5 L1939.50163,183.5 C1928.45614,183.5 1919.5,192.455925 1919.5,203.498576 L1919.5,561.501424 C1919.5,572.546808 1928.45374,581.5 1939.50163,581.5 L1972.5,581.5 L1972.5,183.5 L1972.5,183.5 Z M2432.5,183.5 L2476.49837,183.5 C2487.54626,183.5 2496.5,192.453192 2496.5,203.498576 L2496.5,561.501424 C2496.5,572.544075 2487.54386,581.5 2476.49837,581.5 L2432.5,581.5 L2432.5,183.5 L2432.5,183.5 Z M1939.50163,591.5 L2476.49837,591.5 C2493.06781,591.5 2506.5,578.065816 2506.5,561.501424 L2506.5,203.498576 C2506.5,186.93082 2493.06958,173.5 2476.49837,173.5 L1939.50163,173.5 C1922.93219,173.5 1909.5,186.934184 1909.5,203.498576 L1909.5,561.501424 C1909.5,578.06918 1922.93042,591.5 1939.50163,591.5 Z M1982.5,181.499923 C1982.5,182.607085 1981.60616,183.5 1980.50844,183.5 L2424.49156,183.5 C2423.39388,183.5 2422.5,182.607099 2422.5,181.499923 L2422.5,583.500077 C2422.5,582.392915 2423.39384,581.5 2424.49156,581.5 L1980.50844,581.5 C1981.60612,581.5 1982.5,582.392901 1982.5,583.500077 L1982.5,181.499923 Z" id="Rectangle-56" sketch:type="MSShapeGroup"></path>
            <path d="M1307,2361.5 L1307,2328.50163 C1307,2317.45614 1298.04408,2308.5 1287.00142,2308.5 L928.998576,2308.5 C917.953192,2308.5 909,2317.45374 909,2328.50163 L909,2361.5 L1307,2361.5 Z M1307,2821.5 L1307,2865.49837 C1307,2876.54626 1298.04681,2885.5 1287.00142,2885.5 L928.998576,2885.5 C917.955925,2885.5 909,2876.54386 909,2865.49837 L909,2821.5 L1307,2821.5 L1307,2821.5 Z M899,2328.50163 L899,2865.49837 C899,2882.06781 912.434184,2895.5 928.998576,2895.5 L1287.00142,2895.5 C1303.56918,2895.5 1317,2882.06958 1317,2865.49837 L1317,2328.50163 C1317,2311.93219 1303.56582,2298.5 1287.00142,2298.5 L928.998576,2298.5 C912.43082,2298.5 899,2311.93042 899,2328.50163 Z M1309.00008,2371.5 C1307.89291,2371.5 1307,2370.60616 1307,2369.50844 L1307,2813.49156 C1307,2812.39388 1307.8929,2811.5 1309.00008,2811.5 L906.999923,2811.5 C908.107085,2811.5 909,2812.39384 909,2813.49156 L909,2369.50844 C909,2370.60612 908.107099,2371.5 906.999923,2371.5 L1309.00008,2371.5 Z" id="Rectangle-56" sketch:type="MSShapeGroup"></path>
            <path d="M929,134 L929,101.001632 C929,89.956143 920.044075,81 909.001424,81 L550.998576,81 C539.953192,81 531,89.9537392 531,101.001632 L531,134 L929,134 L929,134 Z M929,594 L929,637.998368 C929,649.046261 920.046808,658 909.001424,658 L550.998576,658 C539.955925,658 531,649.043857 531,637.998368 L531,594 L929,594 L929,594 Z M521,101.001632 L521,637.998368 C521,654.567812 534.434184,668 550.998576,668 L909.001424,668 C925.56918,668 939,654.569584 939,637.998368 L939,101.001632 C939,84.4321882 925.565816,71 909.001424,71 L550.998576,71 C534.43082,71 521,84.4304165 521,101.001632 Z M931.000077,144 C929.892915,144 929,143.106162 929,142.008444 L929,585.991556 C929,584.893878 929.892901,584 931.000077,584 L528.999923,584 C530.107085,584 531,584.893838 531,585.991556 L531,142.008444 C531,143.106122 530.107099,144 528.999923,144 L931.000077,144 Z" id="Rectangle-56" sketch:type="MSShapeGroup"></path>
            <path d="M1909,1288 L1909,691.002236 C1909,674.43321 1922.43368,661 1939.00495,661 L2805.99505,661 C2822.56077,661 2836,674.432459 2836,691.002236 L2836,1288 L2907,1288 L2907,1337.99758 C2907,1354.5647 2893.56584,1368 2876.99397,1368 L1868.00603,1368 C1851.43129,1368 1838,1354.56746 1838,1337.99758 L1838,1288 L1909,1288 L1909,1288 Z M2805.99505,671 C2817.04033,671 2826,679.957714 2826,691.002236 L2826,1288 L1919,1288 L1919,691.002236 C1919,679.955962 1927.95662,671 1939.00495,671 L2805.99505,671 Z M1868.00603,1358 C1856.95501,1358 1848,1349.04548 1848,1337.99758 L1848,1298 L2897,1298 L2897,1337.99758 C2897,1349.04268 2888.04217,1358 2876.99397,1358 L1868.00603,1358 Z" id="Rectangle-56" sketch:type="MSShapeGroup"></path>
            <path d="M1462,2697 L1462,2100.00224 C1462,2083.43321 1475.43368,2070 1492.00495,2070 L2358.99505,2070 C2375.56077,2070 2389,2083.43246 2389,2100.00224 L2389,2697 L2460,2697 L2460,2746.99758 C2460,2763.5647 2446.56584,2777 2429.99397,2777 L1421.00603,2777 C1404.43129,2777 1391,2763.56746 1391,2746.99758 L1391,2697 L1462,2697 L1462,2697 Z M2358.99505,2080 C2370.04033,2080 2379,2088.95771 2379,2100.00224 L2379,2697 L1472,2697 L1472,2100.00224 C1472,2088.95596 1480.95662,2080 1492.00495,2080 L2358.99505,2080 Z M1421.00603,2767 C1409.95501,2767 1401,2758.04548 1401,2746.99758 L1401,2707 L2450,2707 L2450,2746.99758 C2450,2758.04268 2441.04217,2767 2429.99397,2767 L1421.00603,2767 Z" id="Rectangle-56" sketch:type="MSShapeGroup"></path>
            <path d="M817,2137 L817,2100.00124 C817,2088.95751 808.041743,2080 797.001162,2080 L345.998838,2080 C334.955504,2080 326,2088.95702 326,2100.00124 L326,2137 L817,2137 L817,2137 Z M817,2690 L817,2733.99876 C817,2745.04298 808.044496,2754 797.001162,2754 L345.998838,2754 C334.958257,2754 326,2745.04249 326,2733.99876 L326,2690 L817,2690 L817,2690 Z M316,2100.00124 L316,2733.99876 C316,2750.56799 329.438055,2764 345.998838,2764 L797.001162,2764 C813.569063,2764 827,2750.56411 827,2733.99876 L827,2100.00124 C827,2083.43201 813.561945,2070 797.001162,2070 L345.998838,2070 C329.430937,2070 316,2083.43589 316,2100.00124 Z M818.999107,2147 C817.891373,2147 817,2146.10878 817,2145.00376 L817,2681.99624 C817,2680.89343 817.892919,2680 818.999107,2680 L324.000893,2680 C325.108627,2680 326,2680.89122 326,2681.99624 L326,2145.00376 C326,2146.10657 325.107081,2147 324.000893,2147 L818.999107,2147 Z" id="Rectangle-56" sketch:type="MSShapeGroup"></path>
            <path d="M1503,396 L1503,359.001243 C1503,347.957507 1494.04174,339 1483.00116,339 L1031.99884,339 C1020.9555,339 1012,347.957023 1012,359.001243 L1012,396 L1503,396 L1503,396 Z M1503,949 L1503,992.998757 C1503,1004.04298 1494.0445,1013 1483.00116,1013 L1031.99884,1013 C1020.95826,1013 1012,1004.04249 1012,992.998757 L1012,949 L1503,949 L1503,949 Z M1002,359.001243 L1002,992.998757 C1002,1009.56799 1015.43806,1023 1031.99884,1023 L1483.00116,1023 C1499.56906,1023 1513,1009.56411 1513,992.998757 L1513,359.001243 C1513,342.432014 1499.56194,329 1483.00116,329 L1031.99884,329 C1015.43094,329 1002,342.435895 1002,359.001243 Z M1504.99911,406 C1503.89137,406 1503,405.108784 1503,404.003756 L1503,940.996244 C1503,939.893426 1503.89292,939 1504.99911,939 L1010.00089,939 C1011.10863,939 1012,939.891216 1012,940.996244 L1012,404.003756 C1012,405.106574 1011.10708,406 1010.00089,406 L1504.99911,406 Z" id="Rectangle-56" sketch:type="MSShapeGroup"></path>
            <path d="M1905.5,1450.5 L1868.50124,1450.5 C1857.45751,1450.5 1848.5,1459.45826 1848.5,1470.49884 L1848.5,1921.50116 C1848.5,1932.5445 1857.45702,1941.5 1868.50124,1941.5 L1905.5,1941.5 L1905.5,1450.5 Z M2458.5,1450.5 L2502.49876,1450.5 C2513.54298,1450.5 2522.5,1459.4555 2522.5,1470.49884 L2522.5,1921.50116 C2522.5,1932.54174 2513.54249,1941.5 2502.49876,1941.5 L2458.5,1941.5 L2458.5,1450.5 Z M1868.50124,1951.5 L2502.49876,1951.5 C2519.06799,1951.5 2532.5,1938.06194 2532.5,1921.50116 L2532.5,1470.49884 C2532.5,1453.93094 2519.06411,1440.5 2502.49876,1440.5 L1868.50124,1440.5 C1851.93201,1440.5 1838.5,1453.93806 1838.5,1470.49884 L1838.5,1921.50116 C1838.5,1938.06906 1851.93589,1951.5 1868.50124,1951.5 Z M1915.5,1448.50089 C1915.5,1449.60863 1914.60878,1450.5 1913.50376,1450.5 L2450.49624,1450.5 C2449.39343,1450.5 2448.5,1449.60708 2448.5,1448.50089 L2448.5,1943.49911 C2448.5,1942.39137 2449.39122,1941.5 2450.49624,1941.5 L1913.50376,1941.5 C1914.60657,1941.5 1915.5,1942.39292 1915.5,1943.49911 L1915.5,1448.50089 Z" id="Rectangle-56" sketch:type="MSShapeGroup"></path>
            <path d="M633,1201.99946 L633,1787.00054 C633,1791.41852 636.574013,1795 641.005285,1795 L1690.99472,1795 C1695.41591,1795 1699,1791.41368 1699,1787.00054 L1699,1201.99946 C1699,1197.58148 1695.42599,1194 1690.99472,1194 L641.005285,1194 C636.584088,1194 633,1197.58632 633,1201.99946 Z M1690.99472,1204 C1689.89934,1204 1689,1203.10053 1689,1201.99946 L1689,1787.00054 C1689,1785.89181 1689.89208,1785 1690.99472,1785 L641.005285,1785 C642.100657,1785 643,1785.89947 643,1787.00054 L643,1201.99946 C643,1203.10819 642.107915,1204 641.005285,1204 L1690.99472,1204 Z" id="Rectangle-56" sketch:type="MSShapeGroup"></path>
            <path d="M1968,729.996288 L1968,1228.00371 C1968,1232.41994 1971.58466,1236 1976.00696,1236 L2768.99304,1236 C2773.41516,1236 2777,1232.42576 2777,1228.00371 L2777,729.996288 C2777,725.58006 2773.41534,722 2768.99304,722 L1976.00696,722 C1971.58484,722 1968,725.574245 1968,729.996288 Z M2768.99304,732 C2767.89538,732 2767,731.105799 2767,729.996288 L2767,1228.00371 C2767,1226.89679 2767.89843,1226 2768.99304,1226 L1976.00696,1226 C1977.10462,1226 1978,1226.8942 1978,1228.00371 L1978,729.996288 C1978,731.103215 1977.10157,732 1976.00696,732 L2768.99304,732 Z" id="Rectangle-56" sketch:type="MSShapeGroup"></path>
            <path d="M1521,2138.99629 L1521,2637.00371 C1521,2641.41994 1524.58466,2645 1529.00696,2645 L2321.99304,2645 C2326.41516,2645 2330,2641.42576 2330,2637.00371 L2330,2138.99629 C2330,2134.58006 2326.41534,2131 2321.99304,2131 L1529.00696,2131 C1524.58484,2131 1521,2134.57424 1521,2138.99629 Z M2321.99304,2141 C2320.89538,2141 2320,2140.1058 2320,2138.99629 L2320,2637.00371 C2320,2635.89679 2320.89843,2635 2321.99304,2635 L1529.00696,2635 C1530.10462,2635 1531,2635.8942 1531,2637.00371 L1531,2138.99629 C1531,2140.10321 1530.10157,2141 1529.00696,2141 L2321.99304,2141 Z" id="Rectangle-56" sketch:type="MSShapeGroup"></path>
            <path d="M442.5,1821.5 C431.454304,1821.5 422.5,1830.4543 422.5,1841.5 C422.5,1852.5457 431.454304,1861.5 442.5,1861.5 C453.545696,1861.5 462.5,1852.5457 462.5,1841.5 C462.5,1830.4543 453.545696,1821.5 442.5,1821.5 Z M442.5,1853.5 C435.872582,1853.5 430.5,1848.12742 430.5,1841.5 C430.5,1834.87258 435.872582,1829.5 442.5,1829.5 C449.127418,1829.5 454.5,1834.87258 454.5,1841.5 C454.5,1848.12742 449.127418,1853.5 442.5,1853.5 Z" id="Oval-38" sketch:type="MSShapeGroup"></path>
            <path d="M442.5,1483.5 C431.454304,1483.5 422.5,1492.4543 422.5,1503.5 C422.5,1514.5457 431.454304,1523.5 442.5,1523.5 C453.545696,1523.5 462.5,1514.5457 462.5,1503.5 C462.5,1492.4543 453.545696,1483.5 442.5,1483.5 Z M442.5,1515.5 C435.872582,1515.5 430.5,1510.12742 430.5,1503.5 C430.5,1496.87258 435.872582,1491.5 442.5,1491.5 C449.127418,1491.5 454.5,1496.87258 454.5,1503.5 C454.5,1510.12742 449.127418,1515.5 442.5,1515.5 Z" id="Oval-38" sketch:type="MSShapeGroup"></path>
            <path d="M2862.5,2175.5 C2851.4543,2175.5 2842.5,2184.4543 2842.5,2195.5 C2842.5,2206.5457 2851.4543,2215.5 2862.5,2215.5 C2873.5457,2215.5 2882.5,2206.5457 2882.5,2195.5 C2882.5,2184.4543 2873.5457,2175.5 2862.5,2175.5 Z M2862.5,2207.5 C2855.87258,2207.5 2850.5,2202.12742 2850.5,2195.5 C2850.5,2188.87258 2855.87258,2183.5 2862.5,2183.5 C2869.12742,2183.5 2874.5,2188.87258 2874.5,2195.5 C2874.5,2202.12742 2869.12742,2207.5 2862.5,2207.5 Z" id="Oval-38" sketch:type="MSShapeGroup"></path>
            <path d="M2502.5,2393.5 L2476.50711,2393.5 C2465.46023,2393.5 2456.5,2402.4574 2456.5,2413.49076 L2456.5,2605.50924 C2456.5,2616.55059 2465.45326,2625.5 2476.50711,2625.5 L2502.5,2625.5 L2502.5,2393.5 L2502.5,2393.5 Z M2830.5,2393.5 L2873.49289,2393.5 C2884.54674,2393.5 2893.5,2402.44941 2893.5,2413.49076 L2893.5,2605.50924 C2893.5,2616.5426 2884.53977,2625.5 2873.49289,2625.5 L2830.5,2625.5 L2830.5,2393.5 L2830.5,2393.5 Z M2476.50711,2635.5 L2873.49289,2635.5 C2890.06536,2635.5 2903.5,2622.06271 2903.5,2605.50924 L2903.5,2413.49076 C2903.5,2396.92732 2890.07035,2383.5 2873.49289,2383.5 L2476.50711,2383.5 C2459.93464,2383.5 2446.5,2396.93729 2446.5,2413.49076 L2446.5,2605.50924 C2446.5,2622.07268 2459.92965,2635.5 2476.50711,2635.5 Z M2512.5,2391.49321 C2512.5,2392.60877 2511.60793,2393.5 2510.50616,2393.5 L2822.49384,2393.5 C2821.40214,2393.5 2820.5,2392.59833 2820.5,2391.49321 L2820.5,2627.50679 C2820.5,2626.39123 2821.39207,2625.5 2822.49384,2625.5 L2510.50616,2625.5 C2511.59786,2625.5 2512.5,2626.40167 2512.5,2627.50679 L2512.5,2391.49321 Z" id="Rectangle-56" sketch:type="MSShapeGroup"></path>
            <path d="M2862.5,2489.5 C2851.4543,2489.5 2842.5,2498.4543 2842.5,2509.5 C2842.5,2520.5457 2851.4543,2529.5 2862.5,2529.5 C2873.5457,2529.5 2882.5,2520.5457 2882.5,2509.5 C2882.5,2498.4543 2873.5457,2489.5 2862.5,2489.5 Z M2862.5,2521.5 C2855.87258,2521.5 2850.5,2516.12742 2850.5,2509.5 C2850.5,2502.87258 2855.87258,2497.5 2862.5,2497.5 C2869.12742,2497.5 2874.5,2502.87258 2874.5,2509.5 C2874.5,2516.12742 2869.12742,2521.5 2862.5,2521.5 Z" id="Oval-38" sketch:type="MSShapeGroup"></path>
            <path d="M897.5,876.5 C886.454304,876.5 877.5,885.454304 877.5,896.5 C877.5,907.545696 886.454304,916.5 897.5,916.5 C908.545696,916.5 917.5,907.545696 917.5,896.5 C917.5,885.454304 908.545696,876.5 897.5,876.5 Z M897.5,908.5 C890.872582,908.5 885.5,903.127418 885.5,896.5 C885.5,889.872582 890.872582,884.5 897.5,884.5 C904.127418,884.5 909.5,889.872582 909.5,896.5 C909.5,903.127418 904.127418,908.5 897.5,908.5 Z" id="Oval-38" sketch:type="MSShapeGroup"></path>
            <path d="M1111.5,9.5 L1085.50711,9.5 C1074.46023,9.5 1065.5,18.4574011 1065.5,29.4907575 L1065.5,221.509243 C1065.5,232.550595 1074.45326,241.5 1085.50711,241.5 L1111.5,241.5 L1111.5,9.5 L1111.5,9.5 Z M1439.5,9.5 L1482.49289,9.5 C1493.54674,9.5 1502.5,18.4494053 1502.5,29.4907575 L1502.5,221.509243 C1502.5,232.542599 1493.53977,241.5 1482.49289,241.5 L1439.5,241.5 L1439.5,9.5 L1439.5,9.5 Z M1085.50711,251.5 L1482.49289,251.5 C1499.06536,251.5 1512.5,238.062709 1512.5,221.509243 L1512.5,29.4907575 C1512.5,12.9273195 1499.07035,-0.5 1482.49289,-0.5 L1085.50711,-0.5 C1068.93464,-0.5 1055.5,12.9372908 1055.5,29.4907575 L1055.5,221.509243 C1055.5,238.072681 1068.92965,251.5 1085.50711,251.5 Z M1121.5,7.49321398 C1121.5,8.60876833 1120.60793,9.5 1119.50616,9.5 L1431.49384,9.5 C1430.40214,9.5 1429.5,8.59832991 1429.5,7.49321398 L1429.5,243.506786 C1429.5,242.391232 1430.39207,241.5 1431.49384,241.5 L1119.50616,241.5 C1120.59786,241.5 1121.5,242.40167 1121.5,243.506786 L1121.5,7.49321398 Z" id="Rectangle-56" sketch:type="MSShapeGroup"></path>
            <path d="M1471.5,105.5 C1460.4543,105.5 1451.5,114.454304 1451.5,125.5 C1451.5,136.545696 1460.4543,145.5 1471.5,145.5 C1482.5457,145.5 1491.5,136.545696 1491.5,125.5 C1491.5,114.454304 1482.5457,105.5 1471.5,105.5 Z M1471.5,137.5 C1464.87258,137.5 1459.5,132.127418 1459.5,125.5 C1459.5,118.872582 1464.87258,113.5 1471.5,113.5 C1478.12742,113.5 1483.5,118.872582 1483.5,125.5 C1483.5,132.127418 1478.12742,137.5 1471.5,137.5 Z" id="Oval-38" sketch:type="MSShapeGroup"></path>
            <path d="M2747,1910 C2747,1898.9543 2738.0457,1890 2727,1890 C2715.9543,1890 2707,1898.9543 2707,1910 C2707,1921.0457 2715.9543,1930 2727,1930 C2738.0457,1930 2747,1921.0457 2747,1910 Z M2715,1910 C2715,1903.37258 2720.37258,1898 2727,1898 C2733.62742,1898 2739,1903.37258 2739,1910 C2739,1916.62742 2733.62742,1922 2727,1922 C2720.37258,1922 2715,1916.62742 2715,1910 Z" id="Oval-38" sketch:type="MSShapeGroup"></path>
            <path d="M1731,982 C1731,970.954304 1722.0457,962 1711,962 C1699.9543,962 1691,970.954304 1691,982 C1691,993.045696 1699.9543,1002 1711,1002 C1722.0457,1002 1731,993.045696 1731,982 Z M1699,982 C1699,975.372582 1704.37258,970 1711,970 C1717.62742,970 1723,975.372582 1723,982 C1723,988.627418 1717.62742,994 1711,994 C1704.37258,994 1699,988.627418 1699,982 Z" id="Oval-38" sketch:type="MSShapeGroup"></path>
            <path d="M1731,453.5 C1731,442.454304 1722.0457,433.5 1711,433.5 C1699.9543,433.5 1691,442.454304 1691,453.5 C1691,464.545696 1699.9543,473.5 1711,473.5 C1722.0457,473.5 1731,464.545696 1731,453.5 Z M1699,453.5 C1699,446.872582 1704.37258,441.5 1711,441.5 C1717.62742,441.5 1723,446.872582 1723,453.5 C1723,460.127418 1717.62742,465.5 1711,465.5 C1704.37258,465.5 1699,460.127418 1699,453.5 Z" id="Oval-38" sketch:type="MSShapeGroup"></path>
            <path d="M229,1250.5 C229,1239.4543 220.045696,1230.5 209,1230.5 C197.954304,1230.5 189,1239.4543 189,1250.5 C189,1261.5457 197.954304,1270.5 209,1270.5 C220.045696,1270.5 229,1261.5457 229,1250.5 Z M197,1250.5 C197,1243.87258 202.372582,1238.5 209,1238.5 C215.627418,1238.5 221,1243.87258 221,1250.5 C221,1257.12742 215.627418,1262.5 209,1262.5 C202.372582,1262.5 197,1257.12742 197,1250.5 Z" id="Oval-38" sketch:type="MSShapeGroup"></path>
            <path d="M2465.5,362.5 C2454.4543,362.5 2445.5,371.454304 2445.5,382.5 C2445.5,393.545696 2454.4543,402.5 2465.5,402.5 C2476.5457,402.5 2485.5,393.545696 2485.5,382.5 C2485.5,371.454304 2476.5457,362.5 2465.5,362.5 Z M2465.5,394.5 C2458.87258,394.5 2453.5,389.127418 2453.5,382.5 C2453.5,375.872582 2458.87258,370.5 2465.5,370.5 C2472.12742,370.5 2477.5,375.872582 2477.5,382.5 C2477.5,389.127418 2472.12742,394.5 2465.5,394.5 Z" id="Oval-38" sketch:type="MSShapeGroup"></path>
            <path d="M1128,2854.5 C1128,2843.4543 1119.0457,2834.5 1108,2834.5 C1096.9543,2834.5 1088,2843.4543 1088,2854.5 C1088,2865.5457 1096.9543,2874.5 1108,2874.5 C1119.0457,2874.5 1128,2865.5457 1128,2854.5 Z M1096,2854.5 C1096,2847.87258 1101.37258,2842.5 1108,2842.5 C1114.62742,2842.5 1120,2847.87258 1120,2854.5 C1120,2861.12742 1114.62742,2866.5 1108,2866.5 C1101.37258,2866.5 1096,2861.12742 1096,2854.5 Z" id="Oval-38" sketch:type="MSShapeGroup"></path>
            <path d="M750,627 C750,615.954304 741.045696,607 730,607 C718.954304,607 710,615.954304 710,627 C710,638.045696 718.954304,647 730,647 C741.045696,647 750,638.045696 750,627 Z M718,627 C718,620.372582 723.372582,615 730,615 C736.627418,615 742,620.372582 742,627 C742,633.627418 736.627418,639 730,639 C723.372582,639 718,633.627418 718,627 Z" id="Oval-38" sketch:type="MSShapeGroup"></path>
            <path d="M592,2723 C592,2711.9543 583.045696,2703 572,2703 C560.954304,2703 552,2711.9543 552,2723 C552,2734.0457 560.954304,2743 572,2743 C583.045696,2743 592,2734.0457 592,2723 Z M560,2723 C560,2716.37258 565.372582,2711 572,2711 C578.627418,2711 584,2716.37258 584,2723 C584,2729.62742 578.627418,2735 572,2735 C565.372582,2735 560,2729.62742 560,2723 Z" id="Oval-38" sketch:type="MSShapeGroup"></path>
            <path d="M1278,982 C1278,970.954304 1269.0457,962 1258,962 C1246.9543,962 1238,970.954304 1238,982 C1238,993.045696 1246.9543,1002 1258,1002 C1269.0457,1002 1278,993.045696 1278,982 Z M1246,982 C1246,975.372582 1251.37258,970 1258,970 C1264.62742,970 1270,975.372582 1270,982 C1270,988.627418 1264.62742,994 1258,994 C1251.37258,994 1246,988.627418 1246,982 Z" id="Oval-38" sketch:type="MSShapeGroup"></path>
            <path d="M2491.5,1675.5 C2480.4543,1675.5 2471.5,1684.4543 2471.5,1695.5 C2471.5,1706.5457 2480.4543,1715.5 2491.5,1715.5 C2502.5457,1715.5 2511.5,1706.5457 2511.5,1695.5 C2511.5,1684.4543 2502.5457,1675.5 2491.5,1675.5 Z M2491.5,1707.5 C2484.87258,1707.5 2479.5,1702.12742 2479.5,1695.5 C2479.5,1688.87258 2484.87258,1683.5 2491.5,1683.5 C2498.12742,1683.5 2503.5,1688.87258 2503.5,1695.5 C2503.5,1702.12742 2498.12742,1707.5 2491.5,1707.5 Z" id="Oval-38" sketch:type="MSShapeGroup"></path>
        </g>
    </g>
</svg>