<?xml version="1.0" encoding="UTF-8" standalone="no"?>
<svg width="727px" height="725px" viewBox="0 0 727 725" version="1.1" xmlns="http://www.w3.org/2000/svg" xmlns:xlink="http://www.w3.org/1999/xlink" xmlns:sketch="http://www.bohemiancoding.com/sketch/ns">
    <title>devices-90-s</title>
    <description>Created with Sketch (http://www.bohemiancoding.com/sketch)</description>
    <defs></defs>
    <g id="Page-1" stroke="none" stroke-width="1" fill="none" fill-rule="evenodd" sketch:type="MSPage">
        <g id="devices-svg" sketch:type="MSLayerGroup" transform="translate(0.000000, 1.000000)" fill-opacity="0.2" fill="#DE543F">
            <path d="M250.497436,500.25 L247.961734,500.25 L240.571414,544.355041 C239.887071,548.439164 242.692003,551.75 246.834525,551.75 L336.366025,551.75 C340.509389,551.75 343.313068,548.436706 342.629136,544.355041 L335.238816,500.25 L332.703114,500.25 L340.162639,544.768048 C340.591276,547.326132 338.962317,549.25 336.366025,549.25 L246.834525,549.25 C244.237707,549.25 242.609088,547.327241 243.037911,544.768048 L250.497436,500.25 L250.497436,500.25 Z M140.798418,288.250112 L140.798418,492.749888 C140.798418,496.892086 144.156942,500.25 148.299302,500.25 L434.651163,500.25 C438.793787,500.25 442.152047,496.890015 442.152047,492.749888 L442.152047,288.250112 C442.152047,284.107914 438.793522,280.75 434.651163,280.75 L148.299302,280.75 C144.156678,280.75 140.798418,284.109985 140.798418,288.250112 Z M434.651163,283.25 C437.412306,283.25 439.651187,285.488596 439.651187,288.250112 L439.651187,492.749888 C439.651187,495.51026 437.411643,497.75 434.651163,497.75 L148.299302,497.75 C145.538159,497.75 143.299278,495.511404 143.299278,492.749888 L143.299278,288.250112 C143.299278,285.48974 145.538822,283.25 148.299302,283.25 L434.651163,283.25 Z M143.299278,463 L143.299278,465.5 L439.651187,465.5 L439.651187,463 L143.299278,463 Z" id="Rectangle-407" sketch:type="MSShapeGroup"></path>
            <path d="M20.6320949,431.375 L14.131638,431.375 C11.3689667,431.375 9.12813897,433.61435 9.12813897,436.372689 L9.12813897,484.377311 C9.12813897,487.137649 11.367223,489.375 14.131638,489.375 L20.6320949,489.375 L20.6320949,431.375 L20.6320949,431.375 Z M102.660303,431.375 L113.412222,431.375 C116.176637,431.375 118.415721,433.612351 118.415721,436.372689 L118.415721,484.377311 C118.415721,487.13565 116.174893,489.375 113.412222,489.375 L102.660303,489.375 L102.660303,431.375 L102.660303,431.375 Z M14.131638,491.875 L113.412222,491.875 C117.556765,491.875 120.916581,488.515677 120.916581,484.377311 L120.916581,436.372689 C120.916581,432.23183 117.558014,428.875 113.412222,428.875 L14.131638,428.875 C9.98709496,428.875 6.62727898,432.234323 6.62727898,436.372689 L6.62727898,484.377311 C6.62727898,488.51817 9.98584537,491.875 14.131638,491.875 Z M23.1329549,430.873303 C23.1329549,431.152192 22.9098606,431.375 22.6343223,431.375 L100.658075,431.375 C100.385056,431.375 100.159443,431.149582 100.159443,430.873303 L100.159443,489.876697 C100.159443,489.597808 100.382537,489.375 100.658075,489.375 L22.6343223,489.375 C22.9073417,489.375 23.1329549,489.600418 23.1329549,489.876697 L23.1329549,430.873303 Z" id="Rectangle-56" sketch:type="MSShapeGroup"></path>
            <path d="M20.6320949,346.875 L14.131638,346.875 C11.3689667,346.875 9.12813897,349.11435 9.12813897,351.872689 L9.12813897,399.877311 C9.12813897,402.637649 11.367223,404.875 14.131638,404.875 L20.6320949,404.875 L20.6320949,346.875 L20.6320949,346.875 Z M102.660303,346.875 L113.412222,346.875 C116.176637,346.875 118.415721,349.112351 118.415721,351.872689 L118.415721,399.877311 C118.415721,402.63565 116.174893,404.875 113.412222,404.875 L102.660303,404.875 L102.660303,346.875 L102.660303,346.875 Z M14.131638,407.375 L113.412222,407.375 C117.556765,407.375 120.916581,404.015677 120.916581,399.877311 L120.916581,351.872689 C120.916581,347.73183 117.558014,344.375 113.412222,344.375 L14.131638,344.375 C9.98709496,344.375 6.62727898,347.734323 6.62727898,351.872689 L6.62727898,399.877311 C6.62727898,404.01817 9.98584537,407.375 14.131638,407.375 Z M23.1329549,346.373303 C23.1329549,346.652192 22.9098606,346.875 22.6343223,346.875 L100.658075,346.875 C100.385056,346.875 100.159443,346.649582 100.159443,346.373303 L100.159443,405.376697 C100.159443,405.097808 100.382537,404.875 100.658075,404.875 L22.6343223,404.875 C22.9073417,404.875 23.1329549,405.100418 23.1329549,405.376697 L23.1329549,346.373303 Z" id="Rectangle-56" sketch:type="MSShapeGroup"></path>
            <path d="M625.840213,519.875 L619.339756,519.875 C616.577085,519.875 614.336257,522.11435 614.336257,524.872689 L614.336257,572.877311 C614.336257,575.637649 616.575341,577.875 619.339756,577.875 L625.840213,577.875 L625.840213,519.875 L625.840213,519.875 Z M707.868421,519.875 L718.62034,519.875 C721.384755,519.875 723.623839,522.112351 723.623839,524.872689 L723.623839,572.877311 C723.623839,575.63565 721.383011,577.875 718.62034,577.875 L707.868421,577.875 L707.868421,519.875 L707.868421,519.875 Z M619.339756,580.375 L718.62034,580.375 C722.764883,580.375 726.124699,577.015677 726.124699,572.877311 L726.124699,524.872689 C726.124699,520.73183 722.766133,517.375 718.62034,517.375 L619.339756,517.375 C615.195213,517.375 611.835397,520.734323 611.835397,524.872689 L611.835397,572.877311 C611.835397,577.01817 615.193964,580.375 619.339756,580.375 Z M628.341073,519.373303 C628.341073,519.652192 628.117979,519.875 627.842441,519.875 L705.866194,519.875 C705.593174,519.875 705.367561,519.649582 705.367561,519.373303 L705.367561,578.376697 C705.367561,578.097808 705.590655,577.875 705.866194,577.875 L627.842441,577.875 C628.11546,577.875 628.341073,578.100418 628.341073,578.376697 L628.341073,519.373303 Z" id="Rectangle-56" sketch:type="MSShapeGroup"></path>
            <path d="M134.421225,195.125 L127.920768,195.125 C125.158096,195.125 122.917269,197.36435 122.917269,200.122689 L122.917269,248.127311 C122.917269,250.887649 125.156353,253.125 127.920768,253.125 L134.421225,253.125 L134.421225,195.125 L134.421225,195.125 Z M216.449432,195.125 L227.201351,195.125 C229.965766,195.125 232.20485,197.362351 232.20485,200.122689 L232.20485,248.127311 C232.20485,250.88565 229.964023,253.125 227.201351,253.125 L216.449432,253.125 L216.449432,195.125 L216.449432,195.125 Z M127.920768,255.625 L227.201351,255.625 C231.345894,255.625 234.70571,252.265677 234.70571,248.127311 L234.70571,200.122689 C234.70571,195.98183 231.347144,192.625 227.201351,192.625 L127.920768,192.625 C123.776225,192.625 120.416409,195.984323 120.416409,200.122689 L120.416409,248.127311 C120.416409,252.26817 123.774975,255.625 127.920768,255.625 Z M136.922085,194.623303 C136.922085,194.902192 136.69899,195.125 136.423452,195.125 L214.447205,195.125 C214.174186,195.125 213.948572,194.899582 213.948572,194.623303 L213.948572,253.626697 C213.948572,253.347808 214.171667,253.125 214.447205,253.125 L136.423452,253.125 C136.696471,253.125 136.922085,253.350418 136.922085,253.626697 L136.922085,194.623303 Z" id="Rectangle-56" sketch:type="MSShapeGroup"></path>
            <path d="M710.994496,387.5 L710.994496,381.001778 C710.994496,378.240057 708.754375,376 705.995087,376 L657.973953,376 C655.212665,376 652.974544,378.238314 652.974544,381.001778 L652.974544,387.5 L710.994496,387.5 L710.994496,387.5 Z M710.994496,469.5 L710.994496,480.248222 C710.994496,483.011686 708.756375,485.25 705.995087,485.25 L657.973953,485.25 C655.214665,485.25 652.974544,483.009943 652.974544,480.248222 L652.974544,469.5 L710.994496,469.5 Z M650.473684,381.001778 L650.473684,480.248222 C650.473684,484.391339 653.834163,487.75 657.973953,487.75 L705.995087,487.75 C710.137371,487.75 713.495356,484.392589 713.495356,480.248222 L713.495356,381.001778 C713.495356,376.858661 710.134878,373.5 705.995087,373.5 L657.973953,373.5 C653.831669,373.5 650.473684,376.857411 650.473684,381.001778 Z M711.496365,390 C711.217381,390 710.994496,389.776982 710.994496,389.501539 L710.994496,467.498461 C710.994496,467.225536 711.219991,467 711.496365,467 L652.472675,467 C652.75166,467 652.974544,467.223018 652.974544,467.498461 L652.974544,389.501539 C652.974544,389.774464 652.749049,390 652.472675,390 L711.496365,390 Z" id="Rectangle-56" sketch:type="MSShapeGroup"></path>
            <path d="M456.907121,155.5 L456.907121,149.001778 C456.907121,146.240057 454.667,144 451.907712,144 L403.886577,144 C401.12529,144 398.887169,146.238314 398.887169,149.001778 L398.887169,155.5 L456.907121,155.5 L456.907121,155.5 Z M456.907121,237.5 L456.907121,248.248222 C456.907121,251.011686 454.669,253.25 451.907712,253.25 L403.886577,253.25 C401.12729,253.25 398.887169,251.009943 398.887169,248.248222 L398.887169,237.5 L456.907121,237.5 Z M396.386309,149.001778 L396.386309,248.248222 C396.386309,252.391339 399.746787,255.75 403.886577,255.75 L451.907712,255.75 C456.049996,255.75 459.407981,252.392589 459.407981,248.248222 L459.407981,149.001778 C459.407981,144.858661 456.047502,141.5 451.907712,141.5 L403.886577,141.5 C399.744294,141.5 396.386309,144.857411 396.386309,149.001778 Z M457.40899,158 C457.130005,158 456.907121,157.776982 456.907121,157.501539 L456.907121,235.498461 C456.907121,235.225536 457.132616,235 457.40899,235 L398.3853,235 C398.664284,235 398.887169,235.223018 398.887169,235.498461 L398.887169,157.501539 C398.887169,157.774464 398.661674,158 398.3853,158 L457.40899,158 Z" id="Rectangle-56" sketch:type="MSShapeGroup"></path>
            <path d="M456.907121,23.375 L456.907121,16.8767784 C456.907121,14.1150571 454.667,11.875 451.907712,11.875 L403.886577,11.875 C401.12529,11.875 398.887169,14.113314 398.887169,16.8767784 L398.887169,23.375 L456.907121,23.375 L456.907121,23.375 Z M456.907121,105.375 L456.907121,116.123222 C456.907121,118.886686 454.669,121.125 451.907712,121.125 L403.886577,121.125 C401.12729,121.125 398.887169,118.884943 398.887169,116.123222 L398.887169,105.375 L456.907121,105.375 Z M396.386309,16.8767784 L396.386309,116.123222 C396.386309,120.266339 399.746787,123.625 403.886577,123.625 L451.907712,123.625 C456.049996,123.625 459.407981,120.267589 459.407981,116.123222 L459.407981,16.8767784 C459.407981,12.7336606 456.047502,9.375 451.907712,9.375 L403.886577,9.375 C399.744294,9.375 396.386309,12.7324114 396.386309,16.8767784 Z M457.40899,25.875 C457.130005,25.875 456.907121,25.6519824 456.907121,25.3765389 L456.907121,103.373461 C456.907121,103.100536 457.132616,102.875 457.40899,102.875 L398.3853,102.875 C398.664284,102.875 398.887169,103.098018 398.887169,103.373461 L398.887169,25.3765389 C398.887169,25.6494644 398.661674,25.875 398.3853,25.875 L457.40899,25.875 Z" id="Rectangle-56" sketch:type="MSShapeGroup"></path>
            <path d="M102.035088,189.375 L102.035088,181.125408 C102.035088,178.364036 99.7953364,176.125 97.0337238,176.125 L7.50222387,176.125 C4.73992805,176.125 2.50085999,178.363435 2.50085999,181.125408 L2.50085999,189.375 L102.035088,189.375 L102.035088,189.375 Z M102.035088,304.375 L102.035088,315.374592 C102.035088,318.136565 99.7960197,320.375 97.0337238,320.375 L7.50222387,320.375 C4.74061132,320.375 2.50085999,318.135964 2.50085999,315.374592 L2.50085999,304.375 L102.035088,304.375 L102.035088,304.375 Z M0,181.125408 L0,315.374592 C0,319.516953 3.35970142,322.875 7.50222387,322.875 L97.0337238,322.875 C101.177088,322.875 104.535948,319.517396 104.535948,315.374592 L104.535948,181.125408 C104.535948,176.983047 101.176246,173.625 97.0337238,173.625 L7.50222387,173.625 C3.35886004,173.625 0,176.982604 0,181.125408 Z M102.535279,191.875 C102.258393,191.875 102.035088,191.65154 102.035088,191.377111 L102.035088,302.372889 C102.035088,302.098469 102.25839,301.875 102.535279,301.875 L2.00066866,301.875 C2.27755446,301.875 2.50085999,302.09846 2.50085999,302.372889 L2.50085999,191.377111 C2.50085999,191.651531 2.27755791,191.875 2.00066866,191.875 L102.535279,191.875 Z" id="Rectangle-56" sketch:type="MSShapeGroup"></path>
            <path d="M493.294634,45.875 L485.042204,45.875 C482.279882,45.875 480.040076,48.1139811 480.040076,50.874644 L480.040076,140.375356 C480.040076,143.136702 482.27928,145.375 485.042204,145.375 L493.294634,145.375 L493.294634,45.875 L493.294634,45.875 Z M608.334193,45.875 L619.337569,45.875 C622.100492,45.875 624.339697,48.1132981 624.339697,50.874644 L624.339697,140.375356 C624.339697,143.136019 622.099891,145.375 619.337569,145.375 L608.334193,145.375 L608.334193,45.875 L608.334193,45.875 Z M485.042204,147.875 L619.337569,147.875 C623.481355,147.875 626.840557,144.516454 626.840557,140.375356 L626.840557,50.874644 C626.840557,46.732705 623.481798,43.375 619.337569,43.375 L485.042204,43.375 C480.898418,43.375 477.539216,46.7335461 477.539216,50.874644 L477.539216,140.375356 C477.539216,144.517295 480.897975,147.875 485.042204,147.875 Z M495.795494,45.3749807 C495.795494,45.6517713 495.571957,45.875 495.297433,45.875 L606.331394,45.875 C606.05688,45.875 605.833333,45.6517747 605.833333,45.3749807 L605.833333,145.875019 C605.833333,145.598229 606.05687,145.375 606.331394,145.375 L495.297433,145.375 C495.571947,145.375 495.795494,145.598225 495.795494,145.875019 L495.795494,45.3749807 Z" id="Rectangle-56" sketch:type="MSShapeGroup"></path>
            <path d="M326.862401,590.375 L326.862401,582.125408 C326.862401,579.364036 324.62265,577.125 321.861037,577.125 L232.329537,577.125 C229.567241,577.125 227.328173,579.363435 227.328173,582.125408 L227.328173,590.375 L326.862401,590.375 L326.862401,590.375 Z M326.862401,705.375 L326.862401,716.374592 C326.862401,719.136565 324.623333,721.375 321.861037,721.375 L232.329537,721.375 C229.567925,721.375 227.328173,719.135964 227.328173,716.374592 L227.328173,705.375 L326.862401,705.375 L326.862401,705.375 Z M224.827313,582.125408 L224.827313,716.374592 C224.827313,720.516953 228.187015,723.875 232.329537,723.875 L321.861037,723.875 C326.004401,723.875 329.363261,720.517396 329.363261,716.374592 L329.363261,582.125408 C329.363261,577.983047 326.00356,574.625 321.861037,574.625 L232.329537,574.625 C228.186173,574.625 224.827313,577.982604 224.827313,582.125408 Z M327.362592,592.875 C327.085707,592.875 326.862401,592.65154 326.862401,592.377111 L326.862401,703.372889 C326.862401,703.098469 327.085703,702.875 327.362592,702.875 L226.827982,702.875 C227.104868,702.875 227.328173,703.09846 227.328173,703.372889 L227.328173,592.377111 C227.328173,592.651531 227.104871,592.875 226.827982,592.875 L327.362592,592.875 Z" id="Rectangle-56" sketch:type="MSShapeGroup"></path>
            <path d="M232.329893,33.5 L232.329893,25.250408 C232.329893,22.4890358 230.090142,20.25 227.328529,20.25 L137.79703,20.25 C135.034734,20.25 132.795666,22.4884348 132.795666,25.250408 L132.795666,33.5 L232.329893,33.5 L232.329893,33.5 Z M232.329893,148.5 L232.329893,159.499592 C232.329893,162.261565 230.090825,164.5 227.328529,164.5 L137.79703,164.5 C135.035417,164.5 132.795666,162.260964 132.795666,159.499592 L132.795666,148.5 L232.329893,148.5 L232.329893,148.5 Z M130.294806,25.250408 L130.294806,159.499592 C130.294806,163.641953 133.654507,167 137.79703,167 L227.328529,167 C231.471893,167 234.830753,163.642396 234.830753,159.499592 L234.830753,25.250408 C234.830753,21.108047 231.471052,17.75 227.328529,17.75 L137.79703,17.75 C133.653666,17.75 130.294806,21.1076041 130.294806,25.250408 Z M232.830085,36 C232.553199,36 232.329893,35.7765404 232.329893,35.5021109 L232.329893,146.497889 C232.329893,146.223469 232.553195,146 232.830085,146 L132.295474,146 C132.57236,146 132.795666,146.22346 132.795666,146.497889 L132.795666,35.5021109 C132.795666,35.7765305 132.572364,36 132.295474,36 L232.830085,36 Z" id="Rectangle-56" sketch:type="MSShapeGroup"></path>
            <path d="M477.414173,322 L477.414173,172.750559 C477.414173,168.608302 480.773747,165.25 484.917992,165.25 L701.740075,165.25 C705.88293,165.25 709.243894,168.608115 709.243894,172.750559 L709.243894,322 L727,322 L727,334.499395 C727,338.641176 723.640305,342 719.495912,342 L467.162155,342 C463.017044,342 459.658067,338.641865 459.658067,334.499395 L459.658067,322 L477.414173,322 L477.414173,322 Z M701.740075,167.75 C704.502346,167.75 706.743034,169.989429 706.743034,172.750559 L706.743034,322 L479.915033,322 L479.915033,172.750559 C479.915033,169.98899 482.154958,167.75 484.917992,167.75 L701.740075,167.75 Z M467.162155,339.5 C464.398449,339.5 462.158927,337.26137 462.158927,334.499395 L462.158927,324.5 L724.49914,324.5 L724.49914,334.499395 C724.49914,337.26067 722.258912,339.5 719.495912,339.5 L467.162155,339.5 Z" id="Rectangle-56" sketch:type="MSShapeGroup"></path>
            <path d="M365.625731,674.25 L365.625731,525.000559 C365.625731,520.858302 368.985305,517.5 373.12955,517.5 L589.951634,517.5 C594.094488,517.5 597.455452,520.858115 597.455452,525.000559 L597.455452,674.25 L615.211558,674.25 L615.211558,686.749395 C615.211558,690.891176 611.851863,694.25 607.70747,694.25 L355.373713,694.25 C351.228603,694.25 347.869625,690.891865 347.869625,686.749395 L347.869625,674.25 L365.625731,674.25 L365.625731,674.25 Z M589.951634,520 C592.713904,520 594.954592,522.239429 594.954592,525.000559 L594.954592,674.25 L368.126591,674.25 L368.126591,525.000559 C368.126591,522.23899 370.366516,520 373.12955,520 L589.951634,520 Z M355.373713,691.75 C352.610007,691.75 350.370485,689.51137 350.370485,686.749395 L350.370485,676.75 L612.710698,676.75 L612.710698,686.749395 C612.710698,689.51067 610.470471,691.75 607.70747,691.75 L355.373713,691.75 Z" id="Rectangle-56" sketch:type="MSShapeGroup"></path>
            <path d="M204.320261,534.25 L204.320261,525.000311 C204.320261,522.239377 202.079927,520 199.318832,520 L86.5294652,520 C83.767682,520 81.5280358,522.239256 81.5280358,525.000311 L81.5280358,534.25 L204.320261,534.25 L204.320261,534.25 Z M204.320261,672.5 L204.320261,683.499689 C204.320261,686.260744 202.080615,688.5 199.318832,688.5 L86.5294652,688.5 C83.7683704,688.5 81.5280358,686.260623 81.5280358,683.499689 L81.5280358,672.5 L204.320261,672.5 L204.320261,672.5 Z M79.0271758,525.000311 L79.0271758,683.499689 C79.0271758,687.641996 82.3878452,691 86.5294652,691 L199.318832,691 C203.462232,691 206.821121,687.641026 206.821121,683.499689 L206.821121,525.000311 C206.821121,520.858004 203.460452,517.5 199.318832,517.5 L86.5294652,517.5 C82.3860652,517.5 79.0271758,520.858974 79.0271758,525.000311 Z M204.82021,536.75 C204.543181,536.75 204.320261,536.527196 204.320261,536.250939 L204.320261,670.499061 C204.320261,670.223356 204.543568,670 204.82021,670 L81.0280871,670 C81.3051159,670 81.5280358,670.222804 81.5280358,670.499061 L81.5280358,536.250939 C81.5280358,536.526644 81.3047293,536.75 81.0280871,536.75 L204.82021,536.75 Z" id="Rectangle-56" sketch:type="MSShapeGroup"></path>
            <path d="M375.879257,99 L375.879257,89.7503108 C375.879257,86.9893768 373.638922,84.75 370.877828,84.75 L258.088461,84.75 C255.326678,84.75 253.087031,86.9892557 253.087031,89.7503108 L253.087031,99 L375.879257,99 L375.879257,99 Z M375.879257,237.25 L375.879257,248.249689 C375.879257,251.010744 373.639611,253.25 370.877828,253.25 L258.088461,253.25 C255.327366,253.25 253.087031,251.010623 253.087031,248.249689 L253.087031,237.25 L375.879257,237.25 L375.879257,237.25 Z M250.586171,89.7503108 L250.586171,248.249689 C250.586171,252.391996 253.946841,255.75 258.088461,255.75 L370.877828,255.75 C375.021228,255.75 378.380117,252.391026 378.380117,248.249689 L378.380117,89.7503108 C378.380117,85.6080035 375.019448,82.25 370.877828,82.25 L258.088461,82.25 C253.945061,82.25 250.586171,85.6089737 250.586171,89.7503108 Z M376.379206,101.5 C376.102177,101.5 375.879257,101.277196 375.879257,101.000939 L375.879257,235.249061 C375.879257,234.973356 376.102563,234.75 376.379206,234.75 L252.587083,234.75 C252.864111,234.75 253.087031,234.972804 253.087031,235.249061 L253.087031,101.000939 C253.087031,101.276644 252.863725,101.5 252.587083,101.5 L376.379206,101.5 Z" id="Rectangle-56" sketch:type="MSShapeGroup"></path>
            <path d="M476.538872,362.625 L467.286001,362.625 C464.524117,362.625 462.28397,364.864564 462.28397,367.62471 L462.28397,480.37529 C462.28397,483.136124 464.523996,485.375 467.286001,485.375 L476.538872,485.375 L476.538872,362.625 L476.538872,362.625 Z M614.836429,362.625 L625.839902,362.625 C628.601907,362.625 630.841933,364.863876 630.841933,367.62471 L630.841933,480.37529 C630.841933,483.135436 628.601786,485.375 625.839902,485.375 L614.836429,485.375 L614.836429,362.625 Z M467.286001,487.875 L625.839902,487.875 C629.983635,487.875 633.342793,484.515486 633.342793,480.37529 L633.342793,367.62471 C633.342793,363.482734 629.982664,360.125 625.839902,360.125 L467.286001,360.125 C463.142268,360.125 459.78311,363.484514 459.78311,367.62471 L459.78311,480.37529 C459.78311,484.517266 463.143239,487.875 467.286001,487.875 Z M479.039732,362.125223 C479.039732,362.402157 478.816851,362.625 478.540499,362.625 L612.834802,362.625 C612.559003,362.625 612.335569,362.40177 612.335569,362.125223 L612.335569,485.874777 C612.335569,485.597843 612.55845,485.375 612.834802,485.375 L478.540499,485.375 C478.816298,485.375 479.039732,485.59823 479.039732,485.874777 L479.039732,362.125223 Z" id="Rectangle-56" sketch:type="MSShapeGroup"></path>
            <path d="M158.304438,300.499864 L158.304438,446.750136 C158.304438,447.85463 159.198248,448.75 160.306447,448.75 L422.894103,448.75 C423.999783,448.75 424.896113,447.853419 424.896113,446.750136 L424.896113,300.499864 C424.896113,299.39537 424.002302,298.5 422.894103,298.5 L160.306447,298.5 C159.200768,298.5 158.304438,299.396581 158.304438,300.499864 Z M422.894103,301 C422.620166,301 422.395253,300.775132 422.395253,300.499864 L422.395253,446.750136 C422.395253,446.472952 422.618351,446.25 422.894103,446.25 L160.306447,446.25 C160.580384,446.25 160.805298,446.474868 160.805298,446.750136 L160.805298,300.499864 C160.805298,300.777048 160.5822,301 160.306447,301 L422.894103,301 Z" id="Rectangle-56" sketch:type="MSShapeGroup"></path>
            <path d="M492.169247,182.499072 L492.169247,307.000928 C492.169247,308.104985 493.06572,309 494.171675,309 L692.486392,309 C693.592303,309 694.48882,308.106439 694.48882,307.000928 L694.48882,182.499072 C694.48882,181.395015 693.592347,180.5 692.486392,180.5 L494.171675,180.5 C493.065764,180.5 492.169247,181.393561 492.169247,182.499072 Z M692.486392,183 C692.211882,183 691.98796,182.77645 691.98796,182.499072 L691.98796,307.000928 C691.98796,306.724196 692.212646,306.5 692.486392,306.5 L494.171675,306.5 C494.446185,306.5 494.670107,306.72355 494.670107,307.000928 L494.670107,182.499072 C494.670107,182.775804 494.445421,183 494.171675,183 L692.486392,183 Z" id="Rectangle-56" sketch:type="MSShapeGroup"></path>
            <path d="M380.380805,534.749072 L380.380805,659.250928 C380.380805,660.354985 381.277278,661.25 382.383233,661.25 L580.697951,661.25 C581.803861,661.25 582.700378,660.356439 582.700378,659.250928 L582.700378,534.749072 C582.700378,533.645015 581.803905,532.75 580.697951,532.75 L382.383233,532.75 C381.277322,532.75 380.380805,533.643561 380.380805,534.749072 Z M580.697951,535.25 C580.42344,535.25 580.199518,535.02645 580.199518,534.749072 L580.199518,659.250928 C580.199518,658.974196 580.424204,658.75 580.697951,658.75 L382.383233,658.75 C382.657743,658.75 382.881665,658.97355 382.881665,659.250928 L382.881665,534.749072 C382.881665,535.025804 382.656979,535.25 382.383233,535.25 L580.697951,535.25 Z" id="Rectangle-56" sketch:type="MSShapeGroup"></path>
            <path d="M110.663055,455.375 C107.900681,455.375 105.661335,457.613576 105.661335,460.375 C105.661335,463.136424 107.900681,465.375 110.663055,465.375 C113.425429,465.375 115.664775,463.136424 115.664775,460.375 C115.664775,457.613576 113.425429,455.375 110.663055,455.375 Z M110.663055,463.375 C109.00563,463.375 107.662023,462.031854 107.662023,460.375 C107.662023,458.718146 109.00563,457.375 110.663055,457.375 C112.320479,457.375 113.664087,458.718146 113.664087,460.375 C113.664087,462.031854 112.320479,463.375 110.663055,463.375 Z" id="Oval-38" sketch:type="MSShapeGroup"></path>
            <path d="M110.663055,370.875 C107.900681,370.875 105.661335,373.113576 105.661335,375.875 C105.661335,378.636424 107.900681,380.875 110.663055,380.875 C113.425429,380.875 115.664775,378.636424 115.664775,375.875 C115.664775,373.113576 113.425429,370.875 110.663055,370.875 Z M110.663055,378.875 C109.00563,378.875 107.662023,377.531854 107.662023,375.875 C107.662023,374.218146 109.00563,372.875 110.663055,372.875 C112.320479,372.875 113.664087,374.218146 113.664087,375.875 C113.664087,377.531854 112.320479,378.875 110.663055,378.875 Z" id="Oval-38" sketch:type="MSShapeGroup"></path>
            <path d="M715.871173,543.875 C713.108799,543.875 710.869453,546.113576 710.869453,548.875 C710.869453,551.636424 713.108799,553.875 715.871173,553.875 C718.633547,553.875 720.872893,551.636424 720.872893,548.875 C720.872893,546.113576 718.633547,543.875 715.871173,543.875 Z M715.871173,551.875 C714.213749,551.875 712.870141,550.531854 712.870141,548.875 C712.870141,547.218146 714.213749,545.875 715.871173,545.875 C717.528597,545.875 718.872205,547.218146 718.872205,548.875 C718.872205,550.531854 717.528597,551.875 715.871173,551.875 Z" id="Oval-38" sketch:type="MSShapeGroup"></path>
            <path d="M625.840213,598.375 L619.339756,598.375 C616.577085,598.375 614.336257,600.61435 614.336257,603.372689 L614.336257,651.377311 C614.336257,654.137649 616.575341,656.375 619.339756,656.375 L625.840213,656.375 L625.840213,598.375 L625.840213,598.375 Z M707.868421,598.375 L718.62034,598.375 C721.384755,598.375 723.623839,600.612351 723.623839,603.372689 L723.623839,651.377311 C723.623839,654.13565 721.383011,656.375 718.62034,656.375 L707.868421,656.375 L707.868421,598.375 L707.868421,598.375 Z M619.339756,658.875 L718.62034,658.875 C722.764883,658.875 726.124699,655.515677 726.124699,651.377311 L726.124699,603.372689 C726.124699,599.23183 722.766133,595.875 718.62034,595.875 L619.339756,595.875 C615.195213,595.875 611.835397,599.234323 611.835397,603.372689 L611.835397,651.377311 C611.835397,655.51817 615.193964,658.875 619.339756,658.875 Z M628.341073,597.873303 C628.341073,598.152192 628.117979,598.375 627.842441,598.375 L705.866194,598.375 C705.593174,598.375 705.367561,598.149582 705.367561,597.873303 L705.367561,656.876697 C705.367561,656.597808 705.590655,656.375 705.866194,656.375 L627.842441,656.375 C628.11546,656.375 628.341073,656.600418 628.341073,656.876697 L628.341073,597.873303 Z" id="Rectangle-56" sketch:type="MSShapeGroup"></path>
            <path d="M715.871173,622.375 C713.108799,622.375 710.869453,624.613576 710.869453,627.375 C710.869453,630.136424 713.108799,632.375 715.871173,632.375 C718.633547,632.375 720.872893,630.136424 720.872893,627.375 C720.872893,624.613576 718.633547,622.375 715.871173,622.375 Z M715.871173,630.375 C714.213749,630.375 712.870141,629.031854 712.870141,627.375 C712.870141,625.718146 714.213749,624.375 715.871173,624.375 C717.528597,624.375 718.872205,625.718146 718.872205,627.375 C718.872205,629.031854 717.528597,630.375 715.871173,630.375 Z" id="Oval-38" sketch:type="MSShapeGroup"></path>
            <path d="M224.452184,219.125 C221.689811,219.125 219.450464,221.363576 219.450464,224.125 C219.450464,226.886424 221.689811,229.125 224.452184,229.125 C227.214558,229.125 229.453904,226.886424 229.453904,224.125 C229.453904,221.363576 227.214558,219.125 224.452184,219.125 Z M224.452184,227.125 C222.79476,227.125 221.451152,225.781854 221.451152,224.125 C221.451152,222.468146 222.79476,221.125 224.452184,221.125 C226.109609,221.125 227.453216,222.468146 227.453216,224.125 C227.453216,225.781854 226.109609,227.125 224.452184,227.125 Z" id="Oval-38" sketch:type="MSShapeGroup"></path>
            <path d="M277.970588,2.375 L271.470131,2.375 C268.70746,2.375 266.466632,4.61435027 266.466632,7.37268937 L266.466632,55.3773106 C266.466632,58.1376487 268.705716,60.375 271.470131,60.375 L277.970588,60.375 L277.970588,2.375 L277.970588,2.375 Z M359.998796,2.375 L370.750715,2.375 C373.51513,2.375 375.754214,4.61235132 375.754214,7.37268937 L375.754214,55.3773106 C375.754214,58.1356497 373.513386,60.375 370.750715,60.375 L359.998796,60.375 L359.998796,2.375 L359.998796,2.375 Z M271.470131,62.875 L370.750715,62.875 C374.895258,62.875 378.255074,59.5156773 378.255074,55.3773106 L378.255074,7.37268937 C378.255074,3.23182987 374.896508,-0.125 370.750715,-0.125 L271.470131,-0.125 C267.325588,-0.125 263.965772,3.2343227 263.965772,7.37268937 L263.965772,55.3773106 C263.965772,59.5181701 267.324339,62.875 271.470131,62.875 Z M280.471448,1.87330349 C280.471448,2.15219208 280.248354,2.375 279.972816,2.375 L357.996569,2.375 C357.723549,2.375 357.497936,2.14958248 357.497936,1.87330349 L357.497936,60.8766965 C357.497936,60.5978079 357.72103,60.375 357.996569,60.375 L279.972816,60.375 C280.245835,60.375 280.471448,60.6004175 280.471448,60.8766965 L280.471448,1.87330349 Z" id="Rectangle-56" sketch:type="MSShapeGroup"></path>
            <path d="M368.001548,26.375 C365.239174,26.375 362.999828,28.6135761 362.999828,31.375 C362.999828,34.1364239 365.239174,36.375 368.001548,36.375 C370.763922,36.375 373.003268,34.1364239 373.003268,31.375 C373.003268,28.6135761 370.763922,26.375 368.001548,26.375 Z M368.001548,34.375 C366.344124,34.375 365.000516,33.0318544 365.000516,31.375 C365.000516,29.7181456 366.344124,28.375 368.001548,28.375 C369.658972,28.375 371.00258,29.7181456 371.00258,31.375 C371.00258,33.0318544 369.658972,34.375 368.001548,34.375 Z" id="Oval-38" sketch:type="MSShapeGroup"></path>
            <path d="M686.98624,477.5 C686.98624,474.738576 684.746894,472.5 681.98452,472.5 C679.222146,472.5 676.9828,474.738576 676.9828,477.5 C676.9828,480.261424 679.222146,482.5 681.98452,482.5 C684.746894,482.5 686.98624,480.261424 686.98624,477.5 Z M678.983488,477.5 C678.983488,475.843146 680.327096,474.5 681.98452,474.5 C683.641944,474.5 684.985552,475.843146 684.985552,477.5 C684.985552,479.156854 683.641944,480.5 681.98452,480.5 C680.327096,480.5 678.983488,479.156854 678.983488,477.5 Z" id="Oval-38" sketch:type="MSShapeGroup"></path>
            <path d="M432.898865,245.5 C432.898865,242.738576 430.659519,240.5 427.897145,240.5 C425.134771,240.5 422.895425,242.738576 422.895425,245.5 C422.895425,248.261424 425.134771,250.5 427.897145,250.5 C430.659519,250.5 432.898865,248.261424 432.898865,245.5 Z M424.896113,245.5 C424.896113,243.843146 426.23972,242.5 427.897145,242.5 C429.554569,242.5 430.898177,243.843146 430.898177,245.5 C430.898177,247.156854 429.554569,248.5 427.897145,248.5 C426.23972,248.5 424.896113,247.156854 424.896113,245.5 Z" id="Oval-38" sketch:type="MSShapeGroup"></path>
            <path d="M432.898865,113.375 C432.898865,110.613576 430.659519,108.375 427.897145,108.375 C425.134771,108.375 422.895425,110.613576 422.895425,113.375 C422.895425,116.136424 425.134771,118.375 427.897145,118.375 C430.659519,118.375 432.898865,116.136424 432.898865,113.375 Z M424.896113,113.375 C424.896113,111.718146 426.23972,110.375 427.897145,110.375 C429.554569,110.375 430.898177,111.718146 430.898177,113.375 C430.898177,115.031854 429.554569,116.375 427.897145,116.375 C426.23972,116.375 424.896113,115.031854 424.896113,113.375 Z" id="Oval-38" sketch:type="MSShapeGroup"></path>
            <path d="M57.2696938,312.625 C57.2696938,309.863576 55.0303477,307.625 52.2679739,307.625 C49.5056,307.625 47.2662539,309.863576 47.2662539,312.625 C47.2662539,315.386424 49.5056,317.625 52.2679739,317.625 C55.0303477,317.625 57.2696938,315.386424 57.2696938,312.625 Z M49.2669419,312.625 C49.2669419,310.968146 50.6105495,309.625 52.2679739,309.625 C53.9253982,309.625 55.2690058,310.968146 55.2690058,312.625 C55.2690058,314.281854 53.9253982,315.625 52.2679739,315.625 C50.6105495,315.625 49.2669419,314.281854 49.2669419,312.625 Z" id="Oval-38" sketch:type="MSShapeGroup"></path>
            <path d="M616.587031,90.625 C613.824657,90.625 611.585311,92.8635761 611.585311,95.625 C611.585311,98.3864239 613.824657,100.625 616.587031,100.625 C619.349405,100.625 621.588751,98.3864239 621.588751,95.625 C621.588751,92.8635761 619.349405,90.625 616.587031,90.625 Z M616.587031,98.625 C614.929607,98.625 613.585999,97.2818544 613.585999,95.625 C613.585999,93.9681456 614.929607,92.625 616.587031,92.625 C618.244456,92.625 619.588063,93.9681456 619.588063,95.625 C619.588063,97.2818544 618.244456,98.625 616.587031,98.625 Z" id="Oval-38" sketch:type="MSShapeGroup"></path>
            <path d="M282.097007,713.625 C282.097007,710.863576 279.857661,708.625 277.095287,708.625 C274.332913,708.625 272.093567,710.863576 272.093567,713.625 C272.093567,716.386424 274.332913,718.625 277.095287,718.625 C279.857661,718.625 282.097007,716.386424 282.097007,713.625 Z M274.094255,713.625 C274.094255,711.968146 275.437863,710.625 277.095287,710.625 C278.752712,710.625 280.096319,711.968146 280.096319,713.625 C280.096319,715.281854 278.752712,716.625 277.095287,716.625 C275.437863,716.625 274.094255,715.281854 274.094255,713.625 Z" id="Oval-38" sketch:type="MSShapeGroup"></path>
            <path d="M187.564499,156.75 C187.564499,153.988576 185.325153,151.75 182.562779,151.75 C179.800406,151.75 177.56106,153.988576 177.56106,156.75 C177.56106,159.511424 179.800406,161.75 182.562779,161.75 C185.325153,161.75 187.564499,159.511424 187.564499,156.75 Z M179.561748,156.75 C179.561748,155.093146 180.905355,153.75 182.562779,153.75 C184.220204,153.75 185.563811,155.093146 185.563811,156.75 C185.563811,158.406854 184.220204,159.75 182.562779,159.75 C180.905355,159.75 179.561748,158.406854 179.561748,156.75 Z" id="Oval-38" sketch:type="MSShapeGroup"></path>
            <path d="M148.050912,680.75 C148.050912,677.988576 145.811565,675.75 143.049192,675.75 C140.286818,675.75 138.047472,677.988576 138.047472,680.75 C138.047472,683.511424 140.286818,685.75 143.049192,685.75 C145.811565,685.75 148.050912,683.511424 148.050912,680.75 Z M140.04816,680.75 C140.04816,679.093146 141.391767,677.75 143.049192,677.75 C144.706616,677.75 146.050224,679.093146 146.050224,680.75 C146.050224,682.406854 144.706616,683.75 143.049192,683.75 C141.391767,683.75 140.04816,682.406854 140.04816,680.75 Z" id="Oval-38" sketch:type="MSShapeGroup"></path>
            <path d="M319.609907,245.5 C319.609907,242.738576 317.370561,240.5 314.608187,240.5 C311.845813,240.5 309.606467,242.738576 309.606467,245.5 C309.606467,248.261424 311.845813,250.5 314.608187,250.5 C317.370561,250.5 319.609907,248.261424 319.609907,245.5 Z M311.607155,245.5 C311.607155,243.843146 312.950763,242.5 314.608187,242.5 C316.265611,242.5 317.609219,243.843146 317.609219,245.5 C317.609219,247.156854 316.265611,248.5 314.608187,248.5 C312.950763,248.5 311.607155,247.156854 311.607155,245.5 Z" id="Oval-38" sketch:type="MSShapeGroup"></path>
            <path d="M623.089267,418.875 C620.326893,418.875 618.087547,421.113576 618.087547,423.875 C618.087547,426.636424 620.326893,428.875 623.089267,428.875 C625.851641,428.875 628.090987,426.636424 628.090987,423.875 C628.090987,421.113576 625.851641,418.875 623.089267,418.875 Z M623.089267,426.875 C621.431843,426.875 620.088235,425.531854 620.088235,423.875 C620.088235,422.218146 621.431843,420.875 623.089267,420.875 C624.746692,420.875 626.090299,422.218146 626.090299,423.875 C626.090299,425.531854 624.746692,426.875 623.089267,426.875 Z" id="Oval-38" sketch:type="MSShapeGroup"></path>
        </g>
    </g>
</svg>