<?xml version="1.0" encoding="UTF-8"?>
<svg width="613px" height="56px" viewBox="0 0 613 56" version="1.1" xmlns="http://www.w3.org/2000/svg" xmlns:xlink="http://www.w3.org/1999/xlink">
    <title>Letra Studio</title>
    <g id="Page-1" stroke="none" stroke-width="1" fill="none" fill-rule="evenodd">
        <g id="Logo-Horizontal" fill="#6495ED">
            <path d="M0,1.06318082 L9.87996099,1.06318082 L9.87996099,45.6013773 L34.1248652,45.6013773 L34.1248652,54.265221 L0,54.265221 L0,1.06318082 Z M47.8934109,1.06288083 L83.4622704,1.06288083 L83.4622704,9.72872449 L57.7733719,9.72872449 L57.7733719,22.9534859 L82.7792731,22.9534859 L82.7792731,31.541331 L57.7733719,31.541331 L57.7733719,45.6010773 L83.7672692,45.6010773 L83.7672692,54.264921 L47.8934109,54.264921 L47.8934109,1.06288083 Z M137.924255,9.65262586 L121.887319,9.65262586 L121.887319,54.264821 L112.007358,54.264821 L112.007358,9.65262586 L95.970421,9.65262586 L95.970421,1.06278083 L137.924255,1.06278083 L137.924255,9.65262586 Z M169.508631,38.9902966 L161.376663,38.9902966 L161.376663,54.265021 L151.495702,54.265021 L151.495702,1.06298082 L174.905609,1.06298082 C186.229565,1.06298082 194.210533,9.49982862 194.210533,19.9886394 C194.210533,28.3494886 189.118553,35.4173611 181.365584,38.0013144 L196.565524,54.265021 L183.493575,54.265021 L169.508631,38.9902966 Z M173.612614,30.4764502 C180.149589,30.4764502 184.329572,25.8395338 184.329572,19.9886394 C184.329572,14.136745 180.149589,9.57682723 173.612614,9.57682723 L161.376663,9.57682723 L161.376663,30.4764502 L173.612614,30.4764502 Z M259.340576,54.264821 L248.776618,54.264821 L245.204632,44.9939883 L220.578729,44.9939883 L217.006743,54.264821 L206.442785,54.264821 L229.167695,1.06278083 L236.616666,1.06278083 L259.340576,54.264821 Z M232.89168,12.691571 L223.620717,36.861135 L242.164644,36.861135 L232.89168,12.691571 Z M307.674585,38.6853021 C308.434582,43.7012116 311.626569,47.2731472 317.707545,47.2731472 C323.254524,47.2731472 326.75151,44.3102006 326.75151,39.521287 C326.75151,35.4923597 324.16652,33.0604036 319.758537,31.8454255 L312.918564,29.9454598 C304.709597,27.6645009 299.389618,23.6365736 299.389618,15.5037203 C299.389618,5.7758958 307.142587,0 317.023548,0 C327.283508,0 333.743482,6.91587524 334.19948,15.7327162 L325.154516,15.7327162 C324.776518,11.4007943 321.963529,8.05485469 316.946548,8.05485469 C312.006568,8.05485469 309.117579,10.640808 309.117579,14.6677354 C309.117579,18.7716614 312.082568,20.3696325 316.414551,21.5836106 L323.027524,23.4845763 C330.932493,25.7635352 336.403472,30.1714557 336.403472,38.7613007 C336.403472,48.945117 327.436507,55.3300018 317.403547,55.3300018 C306.154591,55.3300018 299.389618,48.6421225 298.250622,38.6853021 L307.674585,38.6853021 Z M388.798265,9.65262586 L372.761328,9.65262586 L372.761328,54.264821 L362.881367,54.264821 L362.881367,9.65262586 L346.84443,9.65262586 L346.84443,1.06278083 L388.798265,1.06278083 L388.798265,9.65262586 Z M438.297069,1.06288083 L448.17703,1.06288083 L448.17703,33.2892995 C448.17703,46.5890595 438.601068,55.3299018 425.224121,55.3299018 C411.848174,55.3299018 402.271212,46.5890595 402.271212,33.2892995 L402.271212,1.06288083 L412.151173,1.06288083 L412.151173,33.5172953 C412.151173,41.9531432 417.547151,46.6660581 425.224121,46.6660581 C432.901091,46.6660581 438.297069,41.9531432 438.297069,33.5172953 L438.297069,1.06288083 Z M466.634757,54.264721 L466.634757,1.06268083 L482.290696,1.06268083 C503.193613,1.06268083 514.212569,13.2244614 514.212569,27.6642009 C514.212569,42.1049404 503.193613,54.264721 482.290696,54.264721 L466.634757,54.264721 Z M476.515718,45.9058718 L481.454699,45.9058718 C496.35164,45.9058718 504.331609,38.9899966 504.331609,27.6642009 C504.331609,16.3404052 496.35164,9.42452998 481.454699,9.42452998 L476.515718,9.42452998 L476.515718,45.9058718 Z M530.237906,54.2645211 L530.237906,1.06248083 L540.118867,1.06248083 L540.118867,54.2645211 L530.237906,54.2645211 Z M584.457092,0.00049999098 C601.406025,0.00049999098 612.72998,12.2362793 612.72998,27.6640009 C612.72998,43.0937226 601.406025,55.3295018 584.457092,55.3295018 C567.584159,55.3295018 556.183204,43.1697212 556.183204,27.6640009 C556.183204,12.2362793 567.584159,0.00049999098 584.457092,0.00049999098 Z M566.064165,27.6640009 C566.064165,37.8498172 572.980137,46.8176554 584.457092,46.8176554 C596.009046,46.8176554 602.849019,37.8498172 602.849019,27.6640009 C602.849019,17.404186 596.009046,8.51234643 584.457092,8.51234643 C572.980137,8.51234643 566.064165,17.404186 566.064165,27.6640009 Z" id="Letra-Studio-Logo"></path>
        </g>
    </g>
</svg>